<svg width="18" height="20" viewBox="0 0 18 20" fill="none" xmlns="http://www.w3.org/2000/svg">
<path d="M18 15.5556V4.44444C18 2.03556 13.8791 0 9 0C4.12088 0 0 2.03556 0 4.44444V15.5556C0 17.9644 4.12088 20 9 20C13.8791 20 18 17.9644 18 15.5556ZM9 2.22222C13.1524 2.22222 15.6724 3.89667 15.75 4.43778C15.6724 4.99222 13.1524 6.66667 9 6.66667C4.84762 6.66667 2.32763 4.99222 2.25 4.45111C2.32763 3.89667 4.84762 2.22222 9 2.22222ZM2.25 7.34111C3.91387 8.28222 6.34163 8.88889 9 8.88889C11.6584 8.88889 14.0861 8.28222 15.75 7.34111V9.99333C15.6724 10.5478 13.1524 12.2222 9 12.2222C4.84762 12.2222 2.32763 10.5478 2.25 10V7.34111ZM2.25 15.5556V12.8967C3.91387 13.8378 6.34163 14.4444 9 14.4444C11.6584 14.4444 14.0861 13.8378 15.75 12.8967V15.5489C15.6724 16.1033 13.1524 17.7778 9 17.7778C4.84762 17.7778 2.32763 16.1033 2.25 15.5556Z" fill="#0F56B3"/>
</svg>
