<svg width="18" height="21" viewBox="0 0 18 21" fill="none" xmlns="http://www.w3.org/2000/svg">
<path fill-rule="evenodd" clip-rule="evenodd" d="M17.0527 7.21737L10.8082 0.972833C9.75993 -0.0754166 8.06038 -0.0754171 7.01213 0.972833L0.947449 7.03751V20.0243H7.21061V14.6559C7.21061 13.6676 8.01178 12.8664 9.00008 12.8664C9.98838 12.8664 10.7896 13.6676 10.7896 14.6559V20.0243H17.0527V7.21737ZM8.27748 2.23818L2.73692 7.77874V18.2348H5.42113V14.6559C5.42113 12.6793 7.02348 11.0769 9.00008 11.0769C10.9767 11.0769 12.579 12.6793 12.579 14.6559V18.2348H15.2632V7.95859L9.54283 2.23818C9.19341 1.88877 8.6269 1.88877 8.27748 2.23818Z" fill="#0F56B3"/>
</svg>
