<svg width="14" height="22" viewBox="0 0 14 22" fill="none" xmlns="http://www.w3.org/2000/svg">
<path d="M2.00003 6.06989C2.00003 6.06989 2.07503 4.32258 3.7469 2.92156C4.7396 2.08974 5.93179 1.84882 7.00001 1.834C7.97553 1.82182 8.8474 1.98966 9.36876 2.24805C10.2599 2.69176 12 3.77191 12 6.06989C12 8.48805 10.4802 9.58409 8.75261 10.7918C7.02501 11.9996 6.58335 13.1841 6.58335 14.5417" stroke="#0F56B3" stroke-width="3" stroke-miterlimit="10" stroke-linecap="round"/>
<path d="M6.58333 21.3334C7.5038 21.3334 8.24999 20.5873 8.24999 19.6668C8.24999 18.7463 7.5038 18.0001 6.58333 18.0001C5.66286 18.0001 4.91667 18.7463 4.91667 19.6668C4.91667 20.5873 5.66286 21.3334 6.58333 21.3334Z" fill="#0F56B3"/>
</svg>
