<svg width="20" height="18" viewBox="0 0 20 18" fill="none" xmlns="http://www.w3.org/2000/svg">
<path d="M17.875 0H2.125C0.953 0 0 0.897 0 2V16C0 17.103 0.953 18 2.125 18H17.875C19.047 18 20 17.103 20 16V2C20 0.897 19.047 0 17.875 0ZM17.875 16H2.125C2.068 16 2.029 15.984 2.012 15.984C2.005 15.984 2.001 15.986 2 15.992L1.988 2.046C1.995 2.036 2.04 2 2.125 2H17.875C17.954 2.001 17.997 2.028 18 2.008L18.012 15.954C18.005 15.964 17.96 16 17.875 16Z" fill="#0F56B3"/>
<path d="M3.99999 3.99988H9.99999V9.99988H3.99999V3.99988ZM11 11.9999H3.99999V13.9999H16V11.9999H12H11ZM12 7.99988H16V9.99988H12V7.99988ZM12 3.99988H16V5.99988H12V3.99988Z" fill="#0F56B3"/>
</svg>
