<svg width="20" height="24" viewBox="0 0 13 16" fill="none" xmlns="http://www.w3.org/2000/svg">
<path d="M2.84103 2.17657C2.64797 2.17657 2.46282 2.25327 2.32631 2.38978C2.18979 2.5263 2.1131 2.71145 2.1131 2.90451V5.08832H5.75278V2.17657H2.84103ZM7.20865 2.17657V5.08832H10.8483V2.90451C10.8483 2.71145 10.7716 2.5263 10.6351 2.38978C10.4986 2.25327 10.3135 2.17657 10.1204 2.17657H7.20865ZM10.8483 6.54419H2.1131V9.45593H10.8483V6.54419ZM10.8483 10.9118H7.20865V13.8235H10.1204C10.3135 13.8235 10.4986 13.7469 10.6351 13.6103C10.7716 13.4738 10.8483 13.2887 10.8483 13.0956V10.9118ZM5.75278 13.8235V10.9118H2.1131V13.0956C2.1131 13.2887 2.18979 13.4738 2.32631 13.6103C2.46282 13.7469 2.64797 13.8235 2.84103 13.8235H5.75278ZM0.657227 2.90451C0.657227 2.32533 0.887305 1.76987 1.29685 1.36033C1.70639 0.950782 2.26185 0.720703 2.84103 0.720703H10.1204C10.6996 0.720703 11.255 0.950782 11.6646 1.36033C12.0741 1.76987 12.3042 2.32533 12.3042 2.90451V13.0956C12.3042 13.6748 12.0741 14.2303 11.6646 14.6398C11.255 15.0493 10.6996 15.2794 10.1204 15.2794H2.84103C2.26185 15.2794 1.70639 15.0493 1.29685 14.6398C0.887305 14.2303 0.657227 13.6748 0.657227 13.0956V2.90451Z" fill="white"/>
</svg>
