<svg width="30" height="31" viewBox="0 0 30 31" fill="none" xmlns="http://www.w3.org/2000/svg">
<path d="M29.8857 4.12542C28.8002 4.715 27.6338 5.11347 26.4095 5.29273C27.6593 4.37525 28.6188 2.92239 29.0707 1.19133C27.8826 2.05486 26.5828 2.66328 25.2274 2.99029C24.1234 1.54957 22.5505 0.64917 20.8096 0.64917C17.4671 0.64917 14.7571 3.96846 14.7571 8.06238C14.7571 8.64349 14.8107 9.20922 14.9138 9.75194C9.88378 9.44268 5.42415 6.49137 2.43896 2.00619C1.9181 3.10109 1.61964 4.37469 1.61964 5.73312C1.61964 8.30515 2.68822 10.5741 4.31212 11.9036C3.351 11.8668 2.41102 11.5488 1.57066 10.9763C1.57032 11.0073 1.57032 11.0384 1.57032 11.0696C1.57032 14.6614 3.65655 17.6578 6.4252 18.3388C5.53395 18.6357 4.59909 18.6792 3.69204 18.4658C4.46216 21.4111 6.69739 23.5543 9.34574 23.6143C7.27438 25.6025 4.66463 26.7878 1.82914 26.7878C1.34054 26.7878 0.85885 26.7526 0.385345 26.6842C3.06377 28.7876 6.24509 30.0149 9.66298 30.0149C20.7956 30.0149 26.8831 18.7185 26.8831 8.92212C26.8831 8.60058 26.8774 8.28088 26.8656 7.96301C28.0505 6.91382 29.0732 5.61429 29.8857 4.12542Z" fill="#55ACEE"/>
</svg>
