<svg width="28" height="27" viewBox="0 0 28 27" fill="none" xmlns="http://www.w3.org/2000/svg">
<path d="M2.1 15.6316L16.1 15.633C16.622 15.633 17.1253 15.8304 17.5118 16.1867C17.8982 16.5429 18.1401 17.0325 18.1902 17.5599L18.2 17.7632V20.6053C18.1986 25.5789 12.9976 27 9.1 27C5.2892 27 0.231 25.6415 0.00700016 20.9321L0 20.6053V17.7632C2.50581e-05 17.2333 0.194488 16.7224 0.545466 16.3301C0.896445 15.9379 1.37878 15.6924 1.8984 15.6415L2.1 15.6316ZM18.8832 15.6316H25.9C26.4218 15.6316 26.9249 15.8288 27.3114 16.1847C27.6978 16.5407 27.9398 17.0299 27.9902 17.5571L28 17.7632V19.8947C27.9986 24.246 23.9988 25.5789 21 25.5789C19.9843 25.5814 18.9741 25.4271 18.004 25.1214C18.9182 24.0556 19.5104 22.7013 19.5902 21.0032L19.6 20.6053V17.7632C19.6 17.0612 19.39 16.4117 19.0414 15.8618L18.8832 15.6316H25.9H18.8832ZM9.1 0C10.7709 0 12.3733 0.673729 13.5548 1.87297C14.7363 3.07222 15.4 4.69875 15.4 6.39474C15.4 8.09073 14.7363 9.71725 13.5548 10.9165C12.3733 12.1157 10.7709 12.7895 9.1 12.7895C7.42914 12.7895 5.82671 12.1157 4.64523 10.9165C3.46375 9.71725 2.8 8.09073 2.8 6.39474C2.8 4.69875 3.46375 3.07222 4.64523 1.87297C5.82671 0.673729 7.42914 0 9.1 0ZM21.7 2.84211C22.9996 2.84211 24.2459 3.36612 25.1648 4.29886C26.0838 5.23161 26.6 6.49669 26.6 7.81579C26.6 9.13489 26.0838 10.4 25.1648 11.3327C24.2459 12.2655 22.9996 12.7895 21.7 12.7895C20.4004 12.7895 19.1541 12.2655 18.2352 11.3327C17.3162 10.4 16.8 9.13489 16.8 7.81579C16.8 6.49669 17.3162 5.23161 18.2352 4.29886C19.1541 3.36612 20.4004 2.84211 21.7 2.84211Z" fill="url(#paint0_linear)"/>
<defs>
<linearGradient id="paint0_linear" x1="14" y1="0" x2="14" y2="27" gradientUnits="userSpaceOnUse">
<stop stop-color="#37A1FF"/>
<stop offset="1" stop-color="#1278D2"/>
</linearGradient>
</defs>
</svg>
