<svg width="51" height="51" viewBox="0 0 51 51" fill="none" xmlns="http://www.w3.org/2000/svg">
<path d="M25.5 51C39.5833 51 51 39.5833 51 25.5C51 11.4167 39.5833 0 25.5 0C11.4167 0 0 11.4167 0 25.5C0 39.5833 11.4167 51 25.5 51Z" fill="#F6BA1E"/>
<path d="M25.2028 34.18C22.9512 34.07 20.8271 33.0674 19.2718 31.3806C17.7164 29.6938 16.8494 27.4524 16.8508 25.122C16.8508 20.1166 20.7855 16.0488 25.627 16.0488C30.3369 16.0488 34.1692 19.8746 34.3886 24.6834L31.3169 23.7307C31.0778 22.6824 30.5723 21.7192 29.8526 20.9405C29.1328 20.1619 28.225 19.5961 27.2229 19.3016C26.2208 19.0072 25.1608 18.9948 24.1525 19.2656C23.1442 19.5365 22.2242 20.0809 21.4876 20.8425C20.7509 21.604 20.2244 22.5552 19.9624 23.5976C19.7004 24.64 19.7124 25.7358 19.9972 26.7718C20.282 27.8078 20.8293 28.7464 21.5825 29.4905C22.3356 30.2346 23.2674 30.7572 24.2813 31.0044L25.2028 34.18ZM40.254 25.122C40.254 25.5756 40.2394 26.0293 40.1955 26.4829L37.314 25.5907C37.3286 25.4395 37.3286 25.2732 37.3286 25.122C37.3286 18.438 32.0921 13.0244 25.627 13.0244C19.1619 13.0244 13.9254 18.438 13.9254 25.122C13.9254 31.8059 19.1619 37.2195 25.627 37.2195C25.7733 37.2195 25.9342 37.2195 26.0804 37.2044L26.9434 40.1834C26.5046 40.2288 26.0658 40.2439 25.627 40.2439C17.5529 40.2439 11 33.4693 11 25.122C11 16.7746 17.5529 10 25.627 10C33.7011 10 40.254 16.7746 40.254 25.122ZM34.7396 31.5639L40.254 29.6585L25.627 25.122L30.0151 40.2439L31.8581 34.5429L38.1039 41L41 38.0059L34.7396 31.5639Z" fill="white"/>
</svg>
