<svg width="52" height="52" viewBox="0 0 52 52" fill="none" xmlns="http://www.w3.org/2000/svg">
<path d="M26.2035 51.9061C40.2536 51.9061 51.6434 40.5058 51.6434 26.4429C51.6434 12.38 40.2536 0.979736 26.2035 0.979736C12.1535 0.979736 0.763672 12.38 0.763672 26.4429C0.763672 40.5058 12.1535 51.9061 26.2035 51.9061Z" fill="#7381FF"/>
<path d="M28.8485 26.4761C29.9157 26.4761 30.9393 26.911 31.6939 27.685C32.4486 28.459 32.8726 29.5088 32.8726 30.6035V33.699C32.8726 37.9378 28.6714 40.9219 21.8064 40.9219C14.9414 40.9219 10.7402 37.9378 10.7402 33.699V30.6035C10.7402 29.5088 11.1642 28.459 11.9189 27.685C12.6735 26.911 13.697 26.4761 14.7643 26.4761H28.8485ZM38.9086 26.4761C39.9759 26.4761 40.9994 26.911 41.7541 27.685C42.5087 28.459 42.9327 29.5088 42.9327 30.6035V31.6353C42.9327 35.9464 39.7778 38.8582 33.8786 38.8582C33.5949 38.8582 33.3152 38.852 33.0456 38.8376C34.1301 37.5436 34.7719 35.9773 34.8705 34.1922L34.8846 33.699V30.6035C34.8846 29.1754 34.4138 27.8588 33.621 26.8125L33.3454 26.4761H38.9086ZM21.8064 9.96667C22.7312 9.96667 23.6469 10.1535 24.5013 10.5165C25.3557 10.8795 26.132 11.4115 26.7859 12.0822C27.4398 12.7529 27.9586 13.5492 28.3125 14.4255C28.6664 15.3018 28.8485 16.241 28.8485 17.1896C28.8485 18.1381 28.6664 19.0773 28.3125 19.9536C27.9586 20.83 27.4398 21.6262 26.7859 22.2969C26.132 22.9676 25.3557 23.4997 24.5013 23.8626C23.6469 24.2256 22.7312 24.4124 21.8064 24.4124C19.9387 24.4124 18.1475 23.6515 16.8269 22.2969C15.5062 20.9424 14.7643 19.1052 14.7643 17.1896C14.7643 15.2739 15.5062 13.4368 16.8269 12.0822C18.1475 10.7277 19.9387 9.96667 21.8064 9.96667ZM35.8906 14.094C37.2247 14.094 38.5041 14.6376 39.4474 15.6051C40.3907 16.5727 40.9207 17.8849 40.9207 19.2532C40.9207 20.6215 40.3907 21.9338 39.4474 22.9013C38.5041 23.8689 37.2247 24.4124 35.8906 24.4124C34.5565 24.4124 33.2771 23.8689 32.3338 22.9013C31.3905 21.9338 30.8605 20.6215 30.8605 19.2532C30.8605 17.8849 31.3905 16.5727 32.3338 15.6051C33.2771 14.6376 34.5565 14.094 35.8906 14.094Z" fill="white"/>
</svg>
