<svg width="52" height="52" viewBox="0 0 52 52" fill="none" xmlns="http://www.w3.org/2000/svg">
<path d="M26.0473 51.909C40.0973 51.909 51.4871 40.5087 51.4871 26.4458C51.4871 12.3829 40.0973 0.982666 26.0473 0.982666C11.9972 0.982666 0.607422 12.3829 0.607422 26.4458C0.607422 40.5087 11.9972 51.909 26.0473 51.909Z" fill="#FF7E7E"/>
<path d="M12.5791 18.7902C12.5791 17.2454 13.1922 15.7638 14.2836 14.6714C15.375 13.579 16.8552 12.9653 18.3987 12.9653H34.6935C36.2369 12.9653 37.7172 13.579 38.8085 14.6714C39.8999 15.7638 40.513 17.2454 40.513 18.7902V26.9451H32.3656C30.8222 26.9451 29.342 27.5588 28.2506 28.6512C27.1592 29.7436 26.5461 31.2252 26.5461 32.77V40.9249H18.3987C16.8552 40.9249 15.375 40.3112 14.2836 39.2188C13.1922 38.1264 12.5791 36.6448 12.5791 35.1V18.7902ZM28.8739 40.5964C29.6972 40.3073 30.445 39.8367 31.0621 39.2193L38.8091 31.4629C39.4247 30.8457 39.8941 30.0981 40.1825 29.2751H32.3656C31.4396 29.2751 30.5514 29.6433 29.8966 30.2987C29.2418 30.9541 28.8739 31.8431 28.8739 32.77V40.5964Z" fill="#FFFDFD"/>
</svg>
