<svg width="52" height="52" viewBox="0 0 52 52" fill="none" xmlns="http://www.w3.org/2000/svg">
<path d="M25.5863 51.909C39.6364 51.909 51.0262 40.5087 51.0262 26.4458C51.0262 12.3829 39.6364 0.982666 25.5863 0.982666C11.5363 0.982666 0.146484 12.3829 0.146484 26.4458C0.146484 40.5087 11.5363 51.909 25.5863 51.909Z" fill="#7ADB9B"/>
<path d="M31.3162 9.97085C25.9406 9.97085 21.5829 12.3762 21.5829 15.3476C21.5829 18.319 25.9419 20.7256 31.3162 20.7256C36.6918 20.7256 41.0495 18.319 41.0495 15.3476C41.0495 12.3762 36.6905 9.9696 31.3162 9.9696V9.97085ZM41.0495 16.9449C41.047 19.9163 36.6918 22.3229 31.3162 22.3229C25.9556 22.3229 21.6078 19.9425 21.5829 16.9848V19.0884C21.5829 20.3578 22.3951 21.5199 23.7256 22.4401C25.0711 22.8067 26.2695 23.3155 27.2674 23.9589C28.5044 24.2731 29.8648 24.4651 31.3162 24.4651C36.6918 24.4651 41.0495 22.0598 41.0495 19.0884V16.9449ZM41.0495 20.6857C41.0495 23.6571 36.6918 26.0637 31.3162 26.0637C30.6622 26.0637 30.0268 26.0151 29.4089 25.9465C29.8965 26.6038 30.2291 27.363 30.3818 28.1673C30.6921 28.1847 30.9985 28.2059 31.3162 28.2059C36.6918 28.2059 41.0495 25.8006 41.0495 22.8292V20.6857ZM18.8583 23.6858C13.4828 23.6858 9.125 26.0924 9.125 29.0638C9.125 32.0352 13.484 34.4418 18.8583 34.4418C24.2339 34.4418 28.5917 32.0352 28.5917 29.0638C28.5917 26.0924 24.2326 23.6858 18.8583 23.6858ZM41.0495 24.4265C41.047 27.3979 36.6918 29.8045 31.3162 29.8045C31.0035 29.8045 30.6871 29.782 30.3818 29.7646C30.3681 29.8581 30.3607 29.9828 30.3432 30.0763C30.4055 30.2646 30.4591 30.4504 30.4591 30.6624V31.9093C30.7419 31.923 31.0259 31.9467 31.3162 31.9467C36.6918 31.9467 41.0495 29.5414 41.0495 26.57V24.4265ZM41.0495 28.1673C41.047 31.1387 36.6918 33.5453 31.3162 33.5453C31.0035 33.5453 30.6871 33.5228 30.3818 33.5054C30.3681 33.5989 30.3607 33.7236 30.3432 33.8171C30.4055 34.0041 30.4591 34.1912 30.4591 34.4032V35.6501C30.7419 35.6638 31.0259 35.6875 31.3162 35.6875C36.6918 35.6875 41.0495 33.2822 41.0495 30.3107V28.1673ZM28.5917 30.6611C28.5892 33.6326 24.2339 36.0391 18.8583 36.0391C13.4977 36.0391 9.14992 33.6587 9.125 30.6998V32.8046C9.125 35.776 13.4815 38.1826 18.8583 38.1826C24.2351 38.1826 28.5917 35.776 28.5917 32.8046V30.6611ZM28.5917 34.4019C28.5892 37.3733 24.2339 39.7799 18.8583 39.7799C13.4977 39.7799 9.14992 37.3995 9.125 34.4406V36.5454C9.125 39.5168 13.4815 41.9234 18.8583 41.9234C24.2351 41.9234 28.5917 39.5168 28.5917 36.5454V34.4019Z" fill="white"/>
</svg>
