<svg width="60" height="60" viewBox="0 0 60 60" fill="none" xmlns="http://www.w3.org/2000/svg">
<path d="M30 60C46.5685 60 60 46.5685 60 30C60 13.4315 46.5685 0 30 0C13.4315 0 0 13.4315 0 30C0 46.5685 13.4315 60 30 60Z" fill="#FF4E71"/>
<path d="M38.1094 33.125H39.2773C39.582 33.125 39.9375 32.8203 39.9375 32.5156V20.7852C39.9375 20.4805 39.582 20.125 39.2773 20.125H38.1094C37.8047 20.125 37.5 20.4805 37.5 20.7852V32.5156C37.5 32.8203 37.8047 33.125 38.1094 33.125ZM28.3594 33.125H29.5273C29.832 33.125 30.1875 32.8203 30.1875 32.5156V22.4102C30.1875 22.1055 29.832 21.75 29.5273 21.75H28.3594C28.0547 21.75 27.75 22.1055 27.75 22.4102V32.5156C27.75 32.8203 28.0547 33.125 28.3594 33.125ZM33.2344 33.125H34.4023C34.707 33.125 35.0625 32.8203 35.0625 32.5156V25.6602C35.0625 25.3555 34.707 25 34.4023 25H33.2344C32.9297 25 32.625 25.3555 32.625 25.6602V32.5156C32.625 32.8203 32.9297 33.125 33.2344 33.125ZM43.1875 35.5625H20.4375V19.3125C20.4375 18.9062 20.0312 18.5 19.625 18.5H18.8125C18.3555 18.5 18 18.9062 18 19.3125V36.375C18 37.2891 18.7109 38 19.625 38H43.1875C43.5938 38 44 37.6445 44 37.1875V36.375C44 35.9688 43.5938 35.5625 43.1875 35.5625ZM23.4844 33.125H24.6523C24.957 33.125 25.3125 32.8203 25.3125 32.5156V28.9102C25.3125 28.6055 24.957 28.25 24.6523 28.25H23.4844C23.1797 28.25 22.875 28.6055 22.875 28.9102V32.5156C22.875 32.8203 23.1797 33.125 23.4844 33.125Z" fill="white"/>
</svg>
