<svg width="60" height="63" viewBox="0 0 60 63" fill="none" xmlns="http://www.w3.org/2000/svg">
<path d="M30 60C46.5685 60 60 46.5685 60 30C60 13.4315 46.5685 0 30 0C13.4315 0 0 13.4315 0 30C0 46.5685 13.4315 60 30 60Z" fill="#4EBFFF"/>
<path d="M37.7568 33.0662H38.9248C39.2295 33.0662 39.585 32.7615 39.585 32.4568V20.7263C39.585 20.4216 39.2295 20.0662 38.9248 20.0662H37.7568C37.4521 20.0662 37.1475 20.4216 37.1475 20.7263V32.4568C37.1475 32.7615 37.4521 33.0662 37.7568 33.0662ZM28.0068 33.0662H29.1748C29.4795 33.0662 29.835 32.7615 29.835 32.4568V22.3513C29.835 22.0466 29.4795 21.6912 29.1748 21.6912H28.0068C27.7021 21.6912 27.3975 22.0466 27.3975 22.3513V32.4568C27.3975 32.7615 27.7021 33.0662 28.0068 33.0662ZM32.8818 33.0662H34.0498C34.3545 33.0662 34.71 32.7615 34.71 32.4568V25.6013C34.71 25.2966 34.3545 24.9412 34.0498 24.9412H32.8818C32.5771 24.9412 32.2725 25.2966 32.2725 25.6013V32.4568C32.2725 32.7615 32.5771 33.0662 32.8818 33.0662ZM42.835 35.5037H20.085V19.2537C20.085 18.8474 19.6787 18.4412 19.2725 18.4412H18.46C18.0029 18.4412 17.6475 18.8474 17.6475 19.2537V36.3162C17.6475 37.2302 18.3584 37.9412 19.2725 37.9412H42.835C43.2412 37.9412 43.6475 37.5857 43.6475 37.1287V36.3162C43.6475 35.9099 43.2412 35.5037 42.835 35.5037ZM23.1318 33.0662H24.2998C24.6045 33.0662 24.96 32.7615 24.96 32.4568V28.8513C24.96 28.5466 24.6045 28.1912 24.2998 28.1912H23.1318C22.8271 28.1912 22.5225 28.5466 22.5225 28.8513V32.4568C22.5225 32.7615 22.8271 33.0662 23.1318 33.0662Z" fill="white"/>
</svg>
