<svg width="75" height="75" viewBox="0 0 75 75" fill="none" xmlns="http://www.w3.org/2000/svg">
<path d="M37.5 75C58.2107 75 75 58.2107 75 37.5C75 16.7893 58.2107 0 37.5 0C16.7893 0 0 16.7893 0 37.5C0 58.2107 16.7893 75 37.5 75Z" fill="#FF4E71"/>
<path d="M45.9466 13.2372C38.0227 13.2372 31.5991 16.7795 31.5991 21.1556C31.5991 25.5317 38.0245 29.0759 45.9466 29.0759C53.8706 29.0759 60.2942 25.5317 60.2942 21.1556C60.2942 16.7795 53.8687 13.2354 45.9466 13.2354V13.2372ZM60.2942 23.508C60.2905 27.8841 53.8706 31.4283 45.9466 31.4283C38.0447 31.4283 31.6358 27.9226 31.5991 23.5668V26.6647C31.5991 28.5342 32.7964 30.2456 34.7576 31.6009C36.7409 32.1408 38.5075 32.89 39.9784 33.8376C41.8019 34.3004 43.8072 34.5832 45.9466 34.5832C53.8706 34.5832 60.2942 31.0408 60.2942 26.6647V23.508ZM60.2942 29.0171C60.2942 33.3932 53.8706 36.9374 45.9466 36.9374C44.9825 36.9374 44.046 36.8658 43.1351 36.7648C43.8539 37.7328 44.3442 38.8509 44.5693 40.0353C45.0266 40.061 45.4783 40.0923 45.9466 40.0923C53.8706 40.0923 60.2942 36.5499 60.2942 32.1738V29.0171ZM27.5829 33.4354C19.659 33.4354 13.2354 36.9796 13.2354 41.3557C13.2354 45.7318 19.6608 49.276 27.5829 49.276C35.5068 49.276 41.9305 45.7318 41.9305 41.3557C41.9305 36.9796 35.505 33.4354 27.5829 33.4354ZM60.2942 34.5262C60.2905 38.9023 53.8706 42.4465 45.9466 42.4465C45.4857 42.4465 45.0192 42.4134 44.5693 42.3877C44.5491 42.5255 44.5381 42.7091 44.5124 42.8468C44.6042 43.1241 44.6832 43.3977 44.6832 43.7099V45.5463C45.1 45.5665 45.5187 45.6014 45.9466 45.6014C53.8706 45.6014 60.2942 42.059 60.2942 37.6829V34.5262ZM60.2942 40.0353C60.2905 44.4114 53.8706 47.9556 45.9466 47.9556C45.4857 47.9556 45.0192 47.9226 44.5693 47.8968C44.5491 48.0346 44.5381 48.2182 44.5124 48.3559C44.6042 48.6314 44.6832 48.9068 44.6832 49.219V51.0554C45.1 51.0756 45.5187 51.1105 45.9466 51.1105C53.8706 51.1105 60.2942 47.5681 60.2942 43.1921V40.0353ZM41.9305 43.7081C41.9268 48.0841 35.5068 51.6283 27.5829 51.6283C19.681 51.6283 13.2721 48.1227 13.2354 43.765V46.8648C13.2354 51.2409 19.6571 54.7851 27.5829 54.7851C35.5087 54.7851 41.9305 51.2409 41.9305 46.8648V43.7081ZM41.9305 49.2172C41.9268 53.5933 35.5068 57.1375 27.5829 57.1375C19.681 57.1375 13.2721 53.6318 13.2354 49.2741V52.3739C13.2354 56.75 19.6571 60.2942 27.5829 60.2942C35.5087 60.2942 41.9305 56.75 41.9305 52.3739V49.2172Z" fill="white"/>
</svg>
