<svg width="18" height="22" viewBox="0 0 18 22" fill="none" xmlns="http://www.w3.org/2000/svg">
<path d="M0.75 2.06273C0.75 1.51572 0.967297 0.991123 1.35409 0.604332C1.74088 0.217541 2.26548 0.000244141 2.81248 0.000244141L12.5557 0.000244141C13.1025 0.00072553 13.6267 0.218338 14.0132 0.60524L16.6463 3.23697C17.0327 3.62362 17.2498 4.14784 17.2499 4.69446V19.9376C17.2499 20.4846 17.0326 21.0092 16.6458 21.396C16.259 21.7828 15.7344 22.0001 15.1874 22.0001H2.81248C2.26548 22.0001 1.74088 21.7828 1.35409 21.396C0.967297 21.0092 0.75 20.4846 0.75 19.9376V2.06273ZM2.81248 1.37523C2.63015 1.37523 2.45528 1.44767 2.32635 1.5766C2.19742 1.70553 2.12499 1.88039 2.12499 2.06273V19.9376C2.12499 20.1199 2.19742 20.2948 2.32635 20.4237C2.45528 20.5527 2.63015 20.6251 2.81248 20.6251H15.1874C15.3697 20.6251 15.5446 20.5527 15.6735 20.4237C15.8025 20.2948 15.8749 20.1199 15.8749 19.9376V4.69446C15.8749 4.51248 15.8027 4.33793 15.6741 4.20909L13.041 1.57598C12.9122 1.44746 12.7376 1.37527 12.5557 1.37523H2.81248Z" fill="#0F56B3"/>
<path d="M5.56252 5.50023C5.38018 5.50023 5.20531 5.57267 5.07638 5.7016C4.94745 5.83053 4.87502 6.00539 4.87502 6.18773V8.25021H8.3125V5.50023H5.56252ZM9.68748 5.50023V8.25021H13.125V6.18773C13.125 6.00539 13.0525 5.83053 12.9236 5.7016C12.7947 5.57267 12.6198 5.50023 12.4375 5.50023H9.68748ZM13.125 9.6252H4.87502V12.3752H13.125V9.6252ZM13.125 13.7502H9.68748V16.5002H12.4375C12.6198 16.5002 12.7947 16.4277 12.9236 16.2988C13.0525 16.1699 13.125 15.995 13.125 15.8127V13.7502ZM8.3125 16.5002V13.7502H4.87502V15.8127C4.87502 15.995 4.94745 16.1699 5.07638 16.2988C5.20531 16.4277 5.38018 16.5002 5.56252 16.5002H8.3125ZM3.50003 6.18773C3.50003 5.64072 3.71733 5.11612 4.10412 4.72933C4.49091 4.34254 5.01551 4.12524 5.56252 4.12524H12.4375C12.9845 4.12524 13.5091 4.34254 13.8959 4.72933C14.2827 5.11612 14.4999 5.64072 14.4999 6.18773V15.8127C14.4999 16.3597 14.2827 16.8843 13.8959 17.2711C13.5091 17.6578 12.9845 17.8751 12.4375 17.8751H5.56252C5.01551 17.8751 4.49091 17.6578 4.10412 17.2711C3.71733 16.8843 3.50003 16.3597 3.50003 15.8127V6.18773Z" fill="#0F56B3"/>
</svg>
