<svg width="203" height="32" viewBox="0 0 203 32" fill="none" xmlns="http://www.w3.org/2000/svg">
<path d="M174.066 15.3297C173.82 14.2571 173.368 13.3608 172.687 12.5794L172.679 12.5717C171.752 11.5375 170.572 10.848 169.078 10.465C167.692 10.0972 165.646 9.92102 162.834 9.92102C159.77 9.92102 157.794 10.2811 156.392 10.8097C155.763 11.0395 155.089 11.5222 154.591 11.9972V10.9706H150.623V31.7242H154.607V18.5396C154.607 15.0999 158.123 13.7362 161.632 13.7362H163.394C166.902 13.7362 170.45 15.0922 170.45 18.5396V31.7242H174.38V20.4013C174.38 17.8348 174.28 16.272 174.066 15.3297Z" fill="#FD0939"/>
<path d="M107.024 9.86737H110.985C111.031 7.74527 111.1 5.71511 111.329 4.79579C111.513 3.87647 111.927 3.09504 112.525 2.49749C113.214 1.6701 114.179 1.07254 115.428 0.658846C116.623 0.337084 118.661 0.061288 121.335 0.015322L125.073 0L121.488 3.49342C121.358 3.49342 120.094 3.50108 119.971 3.50108C114.7 3.50108 115.068 6.87192 115.068 9.86737H124.338L120.592 13.6825H114.976L114.999 31.6936H110.992V13.6749H107.032V9.86737H107.024Z" fill="#FD0939"/>
<path d="M103.063 3.04126V7.10159H107.032V3.04126H103.063Z" fill="#FD0939"/>
<path d="M72.4345 20.8379C72.4345 23.3047 72.1434 25.3349 71.5765 26.8517C71.0019 28.4299 69.0254 31.9999 59.4491 31.9999C49.8729 31.9999 47.8964 28.4376 47.3218 26.8517C46.7472 25.3349 46.4637 23.3047 46.4637 20.8379C46.4637 18.371 46.7549 16.3409 47.3218 14.824C47.8964 13.2458 49.8729 9.67578 59.4491 9.67578C69.0254 9.67578 71.0019 13.2381 71.5765 14.824C72.1434 16.3409 72.4345 18.371 72.4345 20.8379ZM67.4242 16.0727C67.0565 15.1764 66.413 14.5941 65.4247 14.2571C64.3981 13.9276 62.5978 13.7361 59.4491 13.6901C56.3005 13.7361 54.4925 13.9276 53.4736 14.2571C52.4853 14.6018 51.8418 15.184 51.474 16.0727C51.1829 16.7622 50.8458 18.4323 50.8458 20.8455C50.8458 23.2587 51.1753 24.9288 51.474 25.6183C51.8418 26.5147 52.4853 27.0969 53.4736 27.434C54.5001 27.7634 56.3005 27.9549 59.4491 28.0009C62.5978 27.9549 64.4058 27.7634 65.4247 27.434C66.413 27.0892 67.0489 26.507 67.4242 25.6183C67.7154 24.9288 68.0524 23.2587 68.0524 20.8455C68.0524 18.4323 67.7154 16.7545 67.4242 16.0727Z" fill="white"/>
<path d="M147.712 20.8379C147.712 23.3047 147.42 25.3349 146.854 26.8517C146.279 28.4299 144.302 31.9999 134.726 31.9999C125.142 31.9999 123.173 28.4376 122.591 26.8517C122.017 25.3349 121.733 23.3047 121.733 20.8379C121.733 18.371 122.024 16.3409 122.591 14.824C123.166 13.2458 125.142 9.67578 134.726 9.67578C144.302 9.67578 146.279 13.2381 146.854 14.824C147.428 16.3409 147.712 18.371 147.712 20.8379ZM142.701 16.0727C142.334 15.1764 141.69 14.5941 140.702 14.2571C139.675 13.9276 137.875 13.7361 134.719 13.6901C131.57 13.7361 129.762 13.9276 128.735 14.2571C127.747 14.6018 127.104 15.184 126.736 16.0727C126.445 16.7622 126.108 18.4323 126.108 20.8455C126.108 23.2587 126.437 24.9288 126.736 25.6183C127.104 26.5147 127.747 27.0969 128.735 27.434C129.762 27.7634 131.562 27.9549 134.719 28.0009C137.867 27.9549 139.675 27.7634 140.702 27.434C141.69 27.0892 142.326 26.507 142.701 25.6183C142.992 24.9288 143.33 23.2587 143.33 20.8455C143.33 18.4323 142.992 16.7545 142.701 16.0727Z" fill="#FD0939"/>
<path d="M43.277 15.2989C43.0242 14.2264 42.5722 13.33 41.8903 12.5486L41.8827 12.5409C40.948 11.5067 39.7606 10.8172 38.2514 10.4342C36.8494 10.0664 34.8346 9.89023 32 9.89023C28.9126 9.89023 26.8135 10.1354 25.3962 10.6717H25.3886C24.2164 11.093 23.2511 11.8744 22.531 12.947C21.696 11.8208 20.6541 11.0547 19.367 10.618C17.9038 10.1277 15.1764 9.88257 11.7367 9.88257C9.15489 9.88257 7.37754 10.0664 6.31266 10.4418H6.305C5.5006 10.7483 4.7345 11.2539 3.97606 11.9893C3.97606 11.3382 3.97606 10.9245 3.97606 10.9245H0V31.6781H3.96074V18.5089C3.96074 15.0691 7.46181 13.7054 10.9935 13.7054H12.7632C16.2949 13.7054 19.8343 15.0614 19.8343 18.5089V31.6934H23.7951V18.5089C23.7951 15.0691 27.2502 13.7054 30.7896 13.7054H32.5592C36.091 13.7054 39.638 15.0614 39.638 18.5089V31.6934H43.5988V20.3705C43.5988 17.7964 43.4992 16.2335 43.277 15.2989Z" fill="white"/>
<path d="M200.818 22.3547H202.848C202.871 21.8721 202.894 21.3665 202.894 20.8379C202.894 18.371 202.61 16.3409 202.036 14.824C201.461 13.2458 199.485 9.67578 189.908 9.67578C180.324 9.67578 178.355 13.2381 177.773 14.824C177.199 16.3409 176.915 18.371 176.915 20.8379C176.915 23.3047 177.206 25.3349 177.773 26.8517C178.348 28.4299 180.324 31.9999 189.908 31.9999C199.485 31.9999 201.461 28.4376 202.036 26.8517C202.089 26.7138 202.135 26.5683 202.181 26.4227H197.401C197.033 26.8747 196.535 27.2041 195.892 27.4263C194.865 27.7557 193.065 27.9473 189.916 27.9932C186.767 27.9473 184.959 27.7557 183.933 27.4263C182.944 27.0816 182.301 26.4993 181.933 25.6107C181.703 25.0821 181.458 23.9635 181.359 22.3777H200.833V22.3547H200.818ZM183.917 14.2494C184.944 13.92 186.744 13.7285 189.901 13.6825C193.049 13.7285 194.85 13.92 195.876 14.2494C196.864 14.5941 197.5 15.1764 197.876 16.0651C198.067 16.5171 198.274 17.3904 198.397 18.6162H181.397C181.519 17.3904 181.726 16.5171 181.918 16.0651C182.286 15.1764 182.929 14.5941 183.917 14.2494Z" fill="#FD0939"/>
<path d="M103.063 9.85999V31.6862H107.032V9.85999H103.063Z" fill="white"/>
<path d="M99.4092 14.8241C98.8346 13.2459 96.8581 9.67587 87.2818 9.67587C83.6122 9.67587 81.0687 10.1968 79.2837 10.9323V0.00769043H75.323V31.7472H79.2837V30.7436C81.0687 31.4791 83.6122 32 87.2818 32C96.8657 32 98.8346 28.4377 99.4092 26.8595C99.9838 25.3426 100.267 23.3125 100.267 20.8456C100.267 18.3711 99.9838 16.3486 99.4092 14.8241ZM95.2569 25.6108C94.8892 26.5071 94.2457 27.0893 93.2574 27.4264C92.2308 27.7558 90.4305 27.9474 87.2818 27.9933C84.1332 27.9474 82.8921 27.7558 81.8655 27.4264C80.8772 27.0817 80.2337 26.5071 79.866 25.6108C79.6361 25.0668 79.3757 23.91 79.2837 22.2552V19.4207C79.3833 17.7736 79.6361 16.6091 79.866 16.0651C80.2337 15.1688 80.8772 14.5866 81.8655 14.2495C82.8921 13.9201 84.1332 13.7285 87.2818 13.6826C90.4305 13.7285 92.2385 13.9201 93.2574 14.2495C94.2457 14.5942 94.8892 15.1765 95.2569 16.0651C95.548 16.7546 95.8851 18.4247 95.8851 20.838C95.8775 23.2512 95.548 24.9213 95.2569 25.6108Z" fill="white"/>
</svg>
