<svg width="31" height="32" viewBox="0 0 31 32" fill="none" xmlns="http://www.w3.org/2000/svg">
<g clip-path="url(#clip0)">
<path d="M15.2419 0.533203C6.82395 0.533203 0 7.35715 0 15.7751C0 24.193 6.82395 31.0169 15.2419 31.0169C23.6598 31.0169 30.4837 24.193 30.4837 15.7751C30.4837 7.35715 23.6598 0.533203 15.2419 0.533203Z" fill="#40B3E0"/>
<path d="M22.6584 9.30071L19.9359 23.0266C19.9359 23.0266 19.5552 23.9785 18.5082 23.5216L12.2259 18.7052L9.94152 17.6011L6.09605 16.3065C6.09605 16.3065 5.5059 16.0972 5.44874 15.6403C5.39159 15.1834 6.1151 14.9359 6.1151 14.9359L21.4017 8.93919C21.4017 8.93919 22.6582 8.38715 22.6582 9.30095" fill="white"/>
<path d="M11.7432 22.8724C11.7432 22.8724 11.5598 22.8552 11.3312 22.1317C11.1029 21.4083 9.94153 17.6009 9.94153 17.6009L19.1745 11.7376C19.1745 11.7376 19.7076 11.4139 19.6886 11.7376C19.6886 11.7376 19.7837 11.7948 19.4981 12.0612C19.2126 12.3279 12.2451 18.591 12.2451 18.591" fill="#D2E5F1"/>
<path d="M14.6347 20.5517L12.1499 22.8172C12.1499 22.8172 11.9556 22.9647 11.7432 22.8722L12.219 18.6641" fill="#B5CFE4"/>
</g>
<defs>
<clipPath id="clip0">
<rect width="30.4837" height="30.4837" fill="white" transform="translate(0 0.533203)"/>
</clipPath>
</defs>
</svg>
