<svg width="27" height="28" viewBox="0 0 27 28" fill="none" xmlns="http://www.w3.org/2000/svg">
<path d="M25.8785 0.347412H1.14118C0.546273 0.347412 0.0656433 0.828042 0.0656433 1.42295V26.1602C0.0656433 26.7552 0.546273 27.2358 1.14118 27.2358H25.8785C26.4734 27.2358 26.954 26.7552 26.954 26.1602V1.42295C26.954 0.828042 26.4734 0.347412 25.8785 0.347412ZM22.7729 8.19546H20.6252C18.9413 8.19546 18.6153 8.99538 18.6153 10.1718V12.7631H22.6351L22.1107 16.8199H18.6153V27.2358H14.424V16.8233H10.9185V12.7631H14.424V9.77179C14.424 6.29982 16.5449 4.40756 19.6437 4.40756C21.1293 4.40756 22.4032 4.51847 22.7762 4.56889V8.19546H22.7729Z" fill="#277CBE"/>
</svg>
