<svg width="288" height="248" viewBox="0 0 232 256" fill="none" xmlns="http://www.w3.org/2000/svg">
<circle cx="115.944" cy="139.944" r="115.944" fill="#E1F6FF"/>
<path d="M107.321 44.3715C107.321 44.3715 114.667 70.8723 118.276 75.2073C121.885 79.5422 133.694 85.9272 133.694 85.9272L130.555 91.458C130.555 91.458 109.115 80.5245 105.378 71.5984C103.221 66.3879 101.769 61.9035 101.043 57.8675C100.445 54.5789 98.0318 46.4215 99.2276 43.1756C100.06 41.0402 105.655 39.9084 107.321 44.3715Z" fill="#0186CB"/>
<path opacity="0.65" d="M107.321 44.3715C107.321 44.3715 114.667 70.8723 118.276 75.2073C121.885 79.5422 133.694 85.9272 133.694 85.9272L130.555 91.458C130.555 91.458 109.115 80.5245 105.378 71.5984C103.221 66.3879 101.769 61.9035 101.043 57.8675C100.445 54.5789 98.0318 46.4215 99.2276 43.1756C100.06 41.0402 105.655 39.9084 107.321 44.3715Z" fill="#0056A3"/>
<path d="M180.93 170.811L186.332 165.75C186.332 165.75 207.986 164.149 209.246 166.049C210.506 167.95 188.724 178.221 185.927 178.05C183.129 177.88 181.293 172.904 180.93 170.811Z" fill="#110239"/>
<path d="M141.253 97.5864C141.253 97.5864 161.732 92.376 163.419 95.7499C165.106 99.1239 186.354 165.771 186.354 165.771L180.951 170.832C180.951 170.832 158.166 114.585 151.567 108.691C144.948 102.797 138.2 99.8927 141.253 97.5864Z" fill="#FCD4CA"/>
<path d="M141.253 97.5864C141.253 97.5864 161.732 92.376 163.419 95.7499C165.106 99.1239 186.354 165.771 186.354 165.771L180.951 170.832C180.951 170.832 158.166 114.585 151.567 108.691C144.948 102.797 138.2 99.8927 141.253 97.5864Z" fill="#E8A393"/>
<path d="M49.9844 205.384H151.14V222.809H49.9844V205.384Z" fill="#FFD066"/>
<path d="M140.399 205.384H145.481V222.809H140.399V205.384Z" fill="#FEAC1A"/>
<path d="M129.722 205.384H134.804V222.809H129.722V205.384Z" fill="#FEAC1A"/>
<path d="M119.023 205.384H124.105V222.809H119.023V205.384Z" fill="#FEAC1A"/>
<path d="M108.325 205.384H113.407V222.809H108.325V205.384Z" fill="#FEAC1A"/>
<path d="M97.6473 205.384H102.73V222.809H97.6473V205.384Z" fill="#FEAC1A"/>
<path d="M86.9487 205.384H92.0311V222.809H86.9487V205.384Z" fill="#FEAC1A"/>
<path d="M76.2504 205.384H81.3327V222.809H76.2504V205.384Z" fill="#FEAC1A"/>
<path d="M65.5518 205.384H70.6342V222.809H65.5518V205.384Z" fill="#FEAC1A"/>
<path d="M54.8746 205.384H59.957V222.809H54.8746V205.384Z" fill="#FEAC1A"/>
<path d="M62.8398 187.959H163.996V205.384H62.8398V187.959Z" fill="#FFD066"/>
<path d="M153.254 187.959H158.337V205.384H153.254V187.959Z" fill="#FEAC1A"/>
<path d="M142.556 187.959H147.638V205.384H142.556V187.959Z" fill="#FEAC1A"/>
<path d="M131.857 187.959H136.939V205.384H131.857V187.959Z" fill="#FEAC1A"/>
<path d="M121.18 187.959H126.262V205.384H121.18V187.959Z" fill="#FEAC1A"/>
<path d="M110.481 187.959H115.564V205.384H110.481V187.959Z" fill="#FEAC1A"/>
<path d="M99.783 187.959H104.865V205.384H99.783V187.959Z" fill="#FEAC1A"/>
<path d="M89.1058 187.959H94.1881V205.384H89.1058V187.959Z" fill="#FEAC1A"/>
<path d="M78.4071 187.959H83.4895V205.384H78.4071V187.959Z" fill="#FEAC1A"/>
<path d="M67.7086 187.959H72.791V205.384H67.7086V187.959Z" fill="#FEAC1A"/>
<path d="M45.4573 170.533H146.613V187.959H45.4573V170.533Z" fill="#FFD066"/>
<path d="M135.872 170.533H140.954V187.958H135.872V170.533Z" fill="#FEAC1A"/>
<path d="M125.195 170.533H130.277V187.958H125.195V170.533Z" fill="#FEAC1A"/>
<path d="M114.496 170.533H119.578V187.958H114.496V170.533Z" fill="#FEAC1A"/>
<path d="M103.797 170.533H108.88V187.958H103.797V170.533Z" fill="#FEAC1A"/>
<path d="M93.1202 170.533H98.2026V187.958H93.1202V170.533Z" fill="#FEAC1A"/>
<path d="M82.4216 170.533H87.504V187.958H82.4216V170.533Z" fill="#FEAC1A"/>
<path d="M71.7233 170.533H76.8057V187.958H71.7233V170.533Z" fill="#FEAC1A"/>
<path d="M61.0459 170.533H66.1282V187.958H61.0459V170.533Z" fill="#FEAC1A"/>
<path d="M50.3475 170.533H55.4299V187.958H50.3475V170.533Z" fill="#FEAC1A"/>
<path d="M54.298 153.108H155.454V170.534H54.298V153.108Z" fill="#FFD066"/>
<path d="M144.713 153.108H149.795V170.534H144.713V153.108Z" fill="#FEAC1A"/>
<path d="M134.014 153.108H139.096V170.534H134.014V153.108Z" fill="#FEAC1A"/>
<path d="M123.316 153.108H128.398V170.534H123.316V153.108Z" fill="#FEAC1A"/>
<path d="M112.638 153.108H117.721V170.534H112.638V153.108Z" fill="#FEAC1A"/>
<path d="M101.94 153.108H107.022V170.534H101.94V153.108Z" fill="#FEAC1A"/>
<path d="M91.2413 153.108H96.3237V170.534H91.2413V153.108Z" fill="#FEAC1A"/>
<path d="M80.5642 153.108H85.6465V170.534H80.5642V153.108Z" fill="#FEAC1A"/>
<path d="M69.8656 153.108H74.9479V170.534H69.8656V153.108Z" fill="#FEAC1A"/>
<path d="M59.167 153.108H64.2493V170.534H59.167V153.108Z" fill="#FEAC1A"/>
<path d="M67.132 135.683H168.288V153.108H67.132V135.683Z" fill="#FFD066"/>
<path d="M157.547 135.683H162.629V153.108H157.547V135.683Z" fill="#FEAC1A"/>
<path d="M146.848 135.683H151.93V153.108H146.848V135.683Z" fill="#FEAC1A"/>
<path d="M136.171 135.683H141.253V153.108H136.171V135.683Z" fill="#FEAC1A"/>
<path d="M125.472 135.683H130.555V153.108H125.472V135.683Z" fill="#FEAC1A"/>
<path d="M114.774 135.683H119.856V153.108H114.774V135.683Z" fill="#FEAC1A"/>
<path d="M104.096 135.683H109.179V153.108H104.096V135.683Z" fill="#FEAC1A"/>
<path d="M93.3981 135.683H98.4804V153.108H93.3981V135.683Z" fill="#FEAC1A"/>
<path d="M82.6995 135.683H87.7818V153.108H82.6995V135.683Z" fill="#FEAC1A"/>
<path d="M72.0009 135.683H77.0833V153.108H72.0009V135.683Z" fill="#FEAC1A"/>
<path d="M53.4865 118.258H154.642V135.683H53.4865V118.258Z" fill="#FFD066"/>
<path d="M143.922 118.258H149.005V135.683H143.922V118.258Z" fill="#FEAC1A"/>
<path d="M133.224 118.258H138.306V135.683H133.224V118.258Z" fill="#FEAC1A"/>
<path d="M122.525 118.258H127.608V135.683H122.525V118.258Z" fill="#FEAC1A"/>
<path d="M111.827 118.258H116.909V135.683H111.827V118.258Z" fill="#FEAC1A"/>
<path d="M101.149 118.258H106.232V135.683H101.149V118.258Z" fill="#FEAC1A"/>
<path d="M90.4508 118.258H95.5332V135.683H90.4508V118.258Z" fill="#FEAC1A"/>
<path d="M79.7523 118.258H84.8347V135.683H79.7523V118.258Z" fill="#FEAC1A"/>
<path d="M69.0751 118.258H74.1574V135.683H69.0751V118.258Z" fill="#FEAC1A"/>
<path d="M58.3767 118.258H63.459V135.683H58.3767V118.258Z" fill="#FEAC1A"/>
<path d="M130.683 85.308C132.242 84.881 133.523 84.3684 134.932 83.5997C136.064 82.9804 137.175 82.3825 138.541 82.5747C139.524 82.7242 147.382 85.9914 145.289 87.4435C144.606 87.9133 142.919 87.0805 142.236 86.8456C141.275 86.5039 140.292 86.0341 139.374 85.607C140.228 85.5643 144.478 87.3581 144.029 88.3617C143.239 90.1128 138.947 87.7638 137.943 87.2086C138.712 87.3367 141.382 88.319 141.36 89.3013C141.36 90.8388 138.2 89.5576 137.495 89.1945C136.982 88.9383 136.598 88.5753 136.043 88.4898C135.381 88.4044 134.74 88.7034 134.121 88.8315C133.032 89.0664 131.879 89.0024 130.768 88.8956C130.106 88.8315 128.59 88.981 128.27 88.4044C127.928 87.8065 128.184 86.4612 128.697 86.0127C129.252 85.5856 130 85.5002 130.683 85.308Z" fill="#FCD4CA"/>
<path d="M130.683 85.308C132.242 84.881 133.523 84.3684 134.932 83.5997C136.064 82.9804 137.175 82.3825 138.541 82.5747C139.524 82.7242 147.382 85.9914 145.289 87.4435C144.606 87.9133 142.919 87.0805 142.236 86.8456C141.275 86.5039 140.292 86.0341 139.374 85.607C140.228 85.5643 144.478 87.3581 144.029 88.3617C143.239 90.1128 138.947 87.7638 137.943 87.2086C138.712 87.3367 141.382 88.319 141.36 89.3013C141.36 90.8388 138.2 89.5576 137.495 89.1945C136.982 88.9383 136.598 88.5753 136.043 88.4898C135.381 88.4044 134.74 88.7034 134.121 88.8315C133.032 89.0664 131.879 89.0024 130.768 88.8956C130.106 88.8315 128.59 88.981 128.27 88.4044C127.928 87.8065 128.184 86.4612 128.697 86.0127C129.252 85.5856 130 85.5002 130.683 85.308Z" fill="#E8A393"/>
<path d="M166.153 49.9238L170.979 51.9098L154.429 91.8212L149.56 89.1733L166.153 49.9238Z" fill="#110239"/>
<path d="M119.835 88.4897H151.333V93.3799H119.835V88.4897Z" fill="#110239"/>
<path d="M64.1424 65.7474C68.3493 63.3344 69.054 60.6864 66.7263 51.867C64.3987 43.0477 70.5061 33.908 76.3785 31.4949C80.6921 29.7225 84.4719 28.9324 87.0984 24.3412C89.725 19.7286 84.7495 9.92694 93.0563 2.66644C99.0996 -2.62946 107.791 1.59872 107.791 1.59872C109.67 0.573705 110.439 11.4645 110.567 19.6646C100.039 35.7658 103.05 56.8213 106.873 74.8444C106.958 75.2928 107.108 75.6772 107.257 76.0616C106.424 90.006 105.762 101.559 105.762 101.559C105.762 101.559 80.4786 115.888 63.2669 103.609C46.0766 91.3514 55.7074 70.5735 64.1424 65.7474Z" fill="#110239"/>
<path d="M138.52 167.523L144.948 171.217C144.948 171.217 152.806 191.44 151.375 193.212C149.923 194.985 133.715 177.154 133.074 174.42C132.412 171.687 136.641 168.484 138.52 167.523Z" fill="#110239"/>
<path d="M130.341 96.3912C130.341 96.3912 171.598 99.2741 175.463 102.968C179.307 106.663 144.286 170.811 144.286 170.811L138.541 167.501C138.541 167.501 147.211 136.986 149.453 129.939C151.696 122.871 156.031 114.372 155.24 113.24C154.429 112.108 112.852 118.386 113.172 106.663C113.471 94.9391 130.341 96.3912 130.341 96.3912Z" fill="#FCD4CA"/>
<path d="M109.99 26.7756C109.99 26.7756 105.655 38.5846 108.303 47.3613L93.8463 43.8592C93.8463 43.8592 99.7615 24.1063 102.281 20.7323C104.823 17.401 109.99 26.7756 109.99 26.7756Z" fill="#FCD4CA"/>
<path d="M103.968 37.3891C99.2276 37.3891 96.7932 40.8912 96.5583 44.5428L93.8463 43.8808C93.8463 43.8808 99.7615 24.128 102.281 20.754C104.801 17.38 109.969 26.7759 109.969 26.7759C109.969 26.7759 108.026 32.0932 107.534 38.2219C106.552 37.7094 105.356 37.3891 103.968 37.3891Z" fill="#E8A393"/>
<path d="M111.485 11.4004C111.485 11.4004 117.101 14.091 118.447 16.3546C119.792 18.6182 118.618 21.7359 118.724 23.8073C118.831 25.8787 119.408 28.9537 119.087 29.4449C118.767 29.9574 116.717 29.4449 116.375 29.8933C116.034 30.3417 113.364 32.0074 112.51 33.9079C111.677 35.8085 110.546 35.9793 108.602 35.0184C106.638 34.0788 99.1638 24.1703 99.0784 19.5364C98.9929 14.9239 105.912 9.49983 111.485 11.4004Z" fill="#FCD4CA"/>
<path d="M106.723 5.10107C106.723 5.10107 109.35 10.3329 109.606 12.4256C109.884 14.497 107.898 20.6471 106.723 21.4586C105.549 22.27 106.552 14.6038 103.563 16.9528C100.573 19.3018 103.734 23.7221 103.563 24.6404C103.392 25.5373 102.025 28.4415 98.9502 28.6977C95.8752 28.9753 90.8142 13.7069 94.1668 9.90582C97.4981 6.10473 103.2 5.10107 106.723 5.10107Z" fill="#110239"/>
<path d="M106.211 2.04673C106.211 2.04673 111.143 -1.64759 116.29 2.49517C121.436 6.65928 121.265 12.8734 125.494 12.3396C125.494 12.3396 122.696 19.5573 116.546 17.849C110.417 16.1193 104.075 6.38167 106.211 2.04673Z" fill="#110239"/>
<path d="M89.3834 83.7063L108.517 82.2542C108.517 82.2542 118.468 93.3798 128.313 93.3798C138.029 93.3798 161.946 93.3798 161.946 93.3798C161.946 93.3798 160.259 107.367 152.144 118.493C152.144 118.493 120.07 120.842 104.502 119.56C88.935 118.279 74.1364 101.089 89.3834 83.7063Z" fill="#F45762"/>
<path opacity="0.35" d="M87.6109 85.9485C88.1661 85.2011 88.7427 84.4537 89.4047 83.7063L108.538 82.2542C108.538 82.2542 118.233 93.0595 127.949 93.3585C116.205 94.5329 93.8037 97.1382 87.6109 85.9485Z" fill="#C9071E"/>
<path opacity="0.35" d="M153.084 95.6226C148.215 95.1528 143.474 93.9783 138.669 93.3804H159.768C157.675 94.4481 156.65 95.9856 153.084 95.6226Z" fill="#C9071E"/>
<path d="M95.6829 37.2183C95.6829 37.2183 104.46 40.6777 107.449 40.998C107.449 40.998 113.642 54.6435 116.055 58.3378C118.468 62.0321 109.948 76.1687 109.478 82.2547C109.478 82.2547 104.353 87.1449 88.8494 84.1339C88.8281 84.1339 84.7921 45.8027 95.6829 37.2183Z" fill="#0186CB"/>
<path opacity="0.65" d="M93.3338 45.3755C96.0245 44.137 100.701 45.3969 102.004 48.1089C103.627 51.4402 101.961 57.3767 102.153 60.9856C102.367 64.7867 102.602 69.8263 103.563 73.5206C104.31 76.4035 106.189 79.9697 108.624 82.8739C106.638 84.0697 100.872 86.4828 88.8494 84.1551C88.8494 84.1551 86.3723 60.7721 90.4937 46.4432C91.5828 46.0589 92.6291 45.6958 93.3338 45.3755Z" fill="#0056A3"/>
<path d="M127.693 85.308C129.252 84.881 130.533 84.3684 131.943 83.5997C133.075 82.9804 134.185 82.3825 135.552 82.5747C136.534 82.7242 144.392 85.9914 142.3 87.4435C141.616 87.9133 139.929 87.0805 139.246 86.8456C138.285 86.5039 137.303 86.0341 136.385 85.607C137.239 85.5643 141.488 87.3581 141.04 88.3617C140.25 90.1128 135.957 87.7638 134.954 87.2086C135.723 87.3367 138.392 88.319 138.37 89.3013C138.37 90.8388 135.21 89.5576 134.505 89.1945C133.993 88.9383 133.608 88.5753 133.053 88.4898C132.391 88.4044 131.751 88.7034 131.131 88.8315C130.042 89.0664 128.889 89.0024 127.779 88.8956C127.117 88.8315 125.601 88.981 125.28 88.4044C124.939 87.8065 125.195 86.4612 125.707 86.0127C126.241 85.5856 126.989 85.5002 127.693 85.308Z" fill="#FCD4CA"/>
<path d="M129.017 85.1155L127.33 91.4577C127.33 91.4577 85.9026 86.6316 84.9416 79.2857C83.9807 71.9398 86.6286 37.7514 96.6225 41.2962C106.616 44.841 96.7506 69.6549 98.3095 71.5768C99.8684 73.4987 129.017 85.1155 129.017 85.1155Z" fill="#0186CB"/>
</svg>
