<svg width="288" height="248" viewBox="0 0 288 248" fill="none" xmlns="http://www.w3.org/2000/svg">
<circle cx="141.904" cy="131.944" r="115.944" fill="#E1F6FF"/>
<path d="M287.025 106.831C283.219 120.098 269.386 127.776 256.118 123.97C242.851 120.163 235.173 106.33 238.979 93.041C242.785 79.7734 256.618 72.0956 269.886 75.9019C283.154 79.7081 290.831 93.563 287.025 106.831Z" fill="#FFD066"/>
<path d="M282.61 105.569C279.5 116.4 268.211 122.665 257.38 119.576C246.548 116.466 240.284 105.177 243.394 94.3458C246.505 83.5142 257.793 77.2502 268.625 80.3604C279.456 83.4272 285.72 94.7373 282.61 105.569Z" fill="#FEAC1A"/>
<path d="M263.557 89.191C267.841 89.104 271.887 90.5395 272.322 94.8026L265.231 95.5203C265.036 93.9108 263.339 93.7368 262.317 93.8456C261.664 93.9108 259.555 94.1283 259.685 95.4333C259.99 98.3479 272.735 93.9761 273.584 102.219C274.084 107.157 270.408 109.397 265.688 110.223L266.536 115.443L262.208 115.878L261.925 110.571C257.467 110.571 253.16 108.918 252.703 104.46L259.794 103.742L259.816 103.894C260.055 105.852 262.273 106.004 263.383 105.895C264.448 105.786 266.558 105.504 266.406 104.068C266.101 101.045 253.312 105.134 252.508 97.1733C252.029 92.5841 255.422 90.4525 259.794 89.626L258.989 84.3625L263.317 83.9275L263.557 89.191Z" fill="#FFD066"/>
<path d="M197.066 32.4017C193.26 45.6693 179.427 53.3471 166.138 49.5408C152.87 45.7345 145.192 31.9014 148.999 18.612C152.805 5.34444 166.638 -2.33337 179.906 1.47291C193.195 5.30094 200.873 19.134 197.066 32.4017Z" fill="#FFD066"/>
<path d="M192.651 31.1407C189.541 41.9723 178.253 48.2364 167.421 45.1479C156.59 42.0593 150.326 30.7492 153.414 19.9177C156.524 9.08607 167.813 2.82202 178.644 5.91054C189.498 9.02081 195.762 20.3092 192.651 31.1407Z" fill="#FEAC1A"/>
<path d="M173.598 14.7626C177.883 14.6756 181.928 16.1111 182.363 20.3741L175.273 21.0919C175.077 19.4824 173.381 19.3084 172.358 19.4171C171.706 19.4824 169.596 19.6999 169.727 21.0049C170.031 23.9194 182.777 19.5476 183.625 27.7909C184.125 32.7282 180.449 34.9685 175.73 35.795L176.578 41.015L172.25 41.45L171.967 36.143C167.508 36.143 163.201 34.49 162.745 30.0312L169.835 29.3134L169.857 29.4657C170.096 31.4232 172.315 31.5754 173.424 31.4667C174.49 31.3579 176.6 31.0752 176.447 29.6397C176.143 26.6164 163.354 30.7054 162.549 22.7449C162.07 18.1556 165.464 16.0241 169.835 15.1976L169.031 9.93403L173.359 9.49902L173.598 14.7626Z" fill="#FFD066"/>
<path d="M49.2742 100.393C45.4679 113.66 31.6348 121.338 18.3454 117.532C5.07783 113.725 -2.59997 99.8924 1.20631 86.603C5.01259 73.3354 18.8457 65.6576 32.1133 69.4639C45.4026 73.2702 53.0805 87.1033 49.2742 100.393Z" fill="#FFD066"/>
<path d="M44.859 99.1095C41.7488 109.941 30.4604 116.205 19.6289 113.095C8.79727 109.985 2.53321 98.6963 5.62174 87.8647C8.73201 77.0331 20.0203 70.769 30.8519 73.8576C41.7053 76.9896 47.9693 88.2779 44.859 99.1095Z" fill="#FEAC1A"/>
<path d="M25.8058 82.7316C30.0905 82.6446 34.1361 84.0801 34.5711 88.3431L27.4805 89.0609C27.2847 87.4514 25.5882 87.2773 24.566 87.3861C23.9135 87.4513 21.8037 87.6688 21.9342 88.9739C22.2387 91.8884 34.9843 87.5166 35.8326 95.7599C36.3328 100.697 32.6571 102.937 27.9373 103.764L28.7855 108.984L24.4572 109.419L24.1745 104.112C19.7157 104.112 15.4092 102.459 14.9524 98.0002L22.043 97.2824L22.0647 97.4347C22.304 99.3922 24.5225 99.5444 25.6318 99.4357C26.6975 99.3269 28.8073 99.0442 28.655 97.6087C28.3505 94.5854 15.5614 98.6744 14.7567 90.7139C14.2782 86.1246 17.6712 83.9931 22.043 83.1666L21.2382 77.903L25.5665 77.468L25.8058 82.7316Z" fill="#FFD066"/>
<path d="M161.179 213.755H121.246L124.53 165.644H157.895L161.179 213.755Z" fill="#EBEBEB"/>
<path d="M159.548 189.917L157.895 165.622H124.53L121.594 208.818C134.23 203.793 148.673 198.66 159.548 189.917Z" fill="#C8C8C8"/>
<path d="M166.399 206.055C165.92 205.337 165.094 204.902 164.224 204.902H142.104H140.277H118.157C117.287 204.902 116.482 205.337 115.982 206.055L109.957 215.06C108.804 216.8 110.044 219.127 112.132 219.127H140.277H142.104H170.249C172.337 219.127 173.576 216.8 172.424 215.06L166.399 206.055Z" fill="#EBEBEB"/>
<path d="M238.958 178.432H43.4452C37.2464 178.432 32.2004 173.408 32.2004 167.188V43.5595C32.2004 37.3607 37.2247 32.3147 43.4452 32.3147H238.958C245.156 32.3147 250.202 37.339 250.202 43.5595V167.209C250.202 173.408 245.178 178.432 238.958 178.432Z" fill="#EBEBEB"/>
<path d="M240.154 41.9939H42.249V167.231H240.154V41.9939Z" fill="white"/>
<path d="M157.677 86.8642L200.699 49.2364L222.188 66.5931L251.768 40.4494L242.72 29.944L280.109 17.2419L266.167 54.6305L256.162 46.3219L222.927 89.0828L199.72 65.6143L173.076 102.764L157.677 86.8642Z" fill="#09C9CE"/>
<path d="M71.677 167.253H193.369C193.369 167.253 210.465 153.986 214.054 140.609H225.777V113.595H214.532C214.532 113.595 206.224 81.5139 173.163 75.7936C140.103 70.0951 87.7503 69.8124 65.0867 105.2C41.1397 142.588 71.677 167.253 71.677 167.253Z" fill="#F45762"/>
<path opacity="0.35" d="M186.039 142.914C163.811 147.09 132.925 146.329 114.046 139.978C95.4716 133.736 79.2025 127.972 74.3087 107.527C73.3082 103.307 73.1125 98.9788 73.678 94.8027C70.5242 97.8913 67.5879 101.284 65.0867 105.199C41.1397 142.588 71.677 167.253 71.677 167.253H193.369C193.369 167.253 210.465 153.985 214.054 140.609H225.777V118.902C216.011 131.039 200.09 140.282 186.039 142.914Z" fill="#C9071E"/>
<path d="M180.493 79.0557C180.493 79.0557 194.174 65.0486 195.479 65.7011C196.784 66.3536 201.177 77.7507 197.763 89.3217L180.493 79.0557Z" fill="#F45762"/>
<path d="M177.622 77.4243C177.622 77.4243 163.941 63.3954 162.636 64.0697C160.2 65.3095 156.938 76.1193 160.352 87.6904L177.622 77.4243Z" fill="#F45762"/>
<path d="M142.604 87.3424C140.125 85.8416 137.297 85.0369 134.47 84.4931C131.533 83.9494 122.594 82.9706 115.982 84.0146C108.195 85.2109 96.6242 89.0172 92.644 92.9104C92.644 92.9104 90.7952 95.2812 93.6445 98.435C96.5155 101.589 100.017 99.0005 101.931 98.1957C102.954 97.7607 106.39 96.4775 109.935 95.3247C114.394 93.8674 119.114 93.2802 123.834 93.6282C128.227 93.9544 133.621 94.3677 134.796 94.5634C136.862 94.9332 140.908 96.6732 142.952 92.9539C144.975 89.2346 142.604 87.3424 142.604 87.3424Z" fill="#110239"/>
<path d="M112.306 89.8656C121.006 87.6906 129.423 88.7346 138.276 88.7129C138.276 88.7129 138.276 88.7129 138.298 88.7129C139.407 86.4509 140.19 83.9931 140.581 81.3831C142.626 67.7239 133.186 55.0001 119.549 52.9773C105.89 50.9328 93.1659 60.3724 91.1431 74.0097C89.9251 82.1661 92.8179 89.9961 98.2554 95.3902C102.714 93.1282 107.216 91.1271 112.306 89.8656Z" fill="#FFD066"/>
<path d="M102.736 93.2585C105.781 91.91 108.913 90.7137 112.284 89.8655C119.244 88.1255 126.052 88.4517 133.012 88.6257C134.513 86.2767 135.557 83.6232 135.992 80.6869C137.645 69.5508 129.967 59.1542 118.809 57.5012C107.673 55.8482 97.2766 63.526 95.6236 74.6839C94.5796 81.9484 97.5159 88.8432 102.736 93.2585Z" fill="#FEAC1A"/>
<path d="M119.766 81.3183C120.093 82.7103 118.048 83.2758 117.004 83.5151C115.917 83.7761 113.698 83.9066 113.198 81.9926L113.154 81.8403L106.216 83.4716C107.238 87.8216 111.741 88.8874 116.156 88.3219L116.286 89.0614C117.591 88.8656 118.875 88.7351 120.18 88.6481L119.832 87.4954C124.399 86.0599 127.749 83.3628 126.618 78.5343C124.704 70.4867 112.632 76.468 111.958 73.6188C111.654 72.3572 113.72 71.857 114.351 71.7047C115.373 71.4655 117.048 71.422 117.461 72.988L124.399 71.3567C123.42 67.2025 119.201 66.2889 114.96 66.9415L114.046 61.7432L109.805 62.7437L111.284 67.855C107.064 69.247 103.998 71.7917 105.063 76.294C106.934 84.0806 119.07 78.3603 119.766 81.3183Z" fill="#FFD066"/>
<path d="M192.803 107.418C191.216 110.854 187.736 113.247 183.712 113.247C179.775 113.247 176.382 110.985 174.751 107.679C173.62 105.417 169.139 107.613 175.817 115.4C180.971 121.403 191.085 120.424 194.239 113.181C194.848 111.768 195.196 110.223 195.196 108.592C195.196 106.591 193.391 106.156 192.803 107.418Z" fill="#110239"/>
</svg>
