<svg width="288" height="248" viewBox="0 0 244 232" fill="none" xmlns="http://www.w3.org/2000/svg">
<circle cx="116.322" cy="115.944" r="115.944" fill="#E1F6FF"/>
<path d="M200.299 115.034C200.299 115.011 200.299 114.989 200.299 114.966C200.299 114.943 200.299 114.921 200.299 114.898C200.299 112.837 200.209 110.798 200.05 108.783C200.027 108.579 200.027 108.375 200.005 108.148C196.562 65.5216 160.911 32 117.424 32C73.9364 32 38.2858 65.5216 34.843 108.126C34.8203 108.33 34.8203 108.556 34.7977 108.76C34.6391 110.776 34.5486 112.814 34.5486 114.875C34.5486 114.898 34.5486 114.921 34.5486 114.943C34.5486 114.966 34.5486 114.989 34.5486 115.011C34.5486 117.072 34.6391 119.111 34.7977 121.127C34.8203 121.331 34.8203 121.534 34.843 121.738C38.2858 164.342 73.9138 197.864 117.424 197.864C160.911 197.864 196.562 164.342 200.005 121.738C200.027 121.534 200.027 121.331 200.05 121.104C200.186 119.134 200.299 117.095 200.299 115.034Z" fill="#0186CB"/>
<path d="M45.579 87.8773C50.8338 88.0132 47.844 90.55 48.0705 94.7176C48.3423 100.04 52.6457 99.1569 55.5449 102.668C56.4735 103.777 56.4962 105.182 57.3116 106.36C58.512 108.081 60.3693 108.715 62.1133 109.757C65.0351 111.501 67.3227 115.216 70.4258 116.348C78.3079 119.247 70.0181 106.858 70.4258 104.344C70.7202 102.645 71.9886 102.622 71.3091 100.946C70.6749 99.4061 69.1347 99.0663 67.8663 99.1569C66.9604 99.2249 65.8279 101.173 64.6954 100.335C63.1779 99.2022 65.6467 97.7753 65.8958 96.9825C66.7792 93.9248 62.3398 91.7731 60.709 94.3552C60.0069 95.4877 61.162 98.5454 59.0556 97.8659C57.6513 97.4129 56.5641 92.6111 56.7 91.3201C57.2889 85.8615 61.2753 84.8423 66.0997 84.797C69.4745 84.7743 71.1959 85.3406 71.9206 88.9872C72.6228 92.4752 71.06 93.6304 74.1177 95.5783C77.5378 97.7526 79.848 96.2351 78.1493 92.1128C77.3113 90.0517 74.7066 87.2885 75.6805 84.8196C76.0429 83.8683 77.5378 83.2115 78.1493 82.4414C79.3045 80.9918 78.172 81.1504 79.9386 80.0179C81.6147 78.9307 83.2908 79.2252 83.9703 76.6204C84.5592 74.3555 83.6985 74.2649 85.3972 72.5888C88.8173 69.1913 91.3994 73.4268 94.5477 71.7281C93.8909 70.6409 93.234 69.4178 92.8943 68.1721C93.6417 67.2434 101.388 67.855 96.9033 64.1404C99.6892 62.487 99.1683 67.1981 101.479 66.7225C104.582 66.0883 99.3268 63.2571 99.2136 62.7361C98.7606 60.5618 102.203 60.5391 103.472 61.3772C105.284 62.5776 104.559 66.1336 107.435 65.6127C107.753 68.1494 110.946 67.2661 110.946 65.2956C110.946 63.4383 108.726 63.846 108.704 61.6037C108.681 59.2028 110.584 59.3387 109.202 57.119C108.296 55.6468 106.235 56.5301 106.597 53.9933C105.465 53.9028 104.446 55.8959 104.061 54.8087C103.064 52.0002 101.841 46.1792 98.0358 50.3014C96.473 49.0557 95.8388 46.836 93.7323 46.8813C90.9691 46.9266 91.3088 50.1202 89.7233 52.0002C88.9985 52.8382 87.7755 53.3365 87.0507 54.2425C86.2579 55.2391 87.2772 56.4848 85.4199 56.8246C82.2942 57.3908 83.2455 53.2233 83.6532 51.751C78.9874 51.2301 80.6181 47.2664 84.2647 47.1531C85.6237 47.1078 87.6396 48.1724 89.1571 47.1078C90.5161 46.1339 90.0631 44.0728 91.9883 44.0954C92.4413 49.101 95.9973 44.7523 98.3076 44.3672C98.1037 44.9335 98.3076 45.9753 98.1037 46.5642C105.533 47.6967 98.1717 37.459 103.223 35.6018C106.507 34.3787 107.096 37.3005 106.96 39.8599C106.824 42.7817 106.96 44.0275 108.726 46.0206C110.584 48.1271 112.396 50.4373 114.185 46.5869C114.525 45.8621 114.321 43.7104 114.729 43.2347C115.453 42.4193 117.673 42.6005 118.692 41.8304C122.226 39.2031 120.097 34.7411 116.948 32.0911C106.892 32.159 97.2883 34.0163 88.387 37.3458C87.9114 37.912 87.5037 38.5236 87.3678 39.1578C86.3938 39.339 85.3972 39.3163 84.6271 38.8633C68.2967 45.93 54.6842 58.1156 45.8055 73.3815C45.8055 73.8572 45.8282 74.2875 45.8961 74.6726C45.9188 74.8764 46.0547 75.1482 46.1226 75.3294C46.485 76.326 47.3457 78.7948 47.2551 80.5388C47.0739 83.0983 45.126 85.3859 45.579 87.8773Z" fill="#FFD066"/>
<path d="M200.299 114.875C200.299 112.814 200.209 110.776 200.05 108.76C200.028 108.556 200.028 108.352 200.005 108.126C199.258 98.8167 196.97 89.9153 193.391 81.7388C193.391 81.7388 193.391 81.7388 193.391 81.7161C192.893 80.5836 192.372 79.4738 191.828 78.364C191.783 78.2734 191.738 78.1828 191.693 78.0922C191.194 77.0729 190.673 76.0764 190.13 75.0798C190.039 74.9212 189.971 74.7853 189.881 74.6268C189.36 73.6981 188.839 72.7921 188.272 71.8862C188.159 71.705 188.046 71.5238 187.933 71.3426C187.389 70.4819 186.846 69.6212 186.279 68.7831C186.143 68.5793 186.007 68.3754 185.872 68.1716C185.305 67.3562 184.739 66.5408 184.15 65.7481C183.992 65.5442 183.856 65.3404 183.697 65.1365C183.108 64.3438 182.474 63.551 181.863 62.781C181.704 62.5998 181.568 62.3959 181.41 62.2147C181.296 62.0788 181.183 61.9429 181.07 61.807C178.963 61.7164 177.31 62.7357 176.291 65.1365C175.634 66.6994 175.815 71.7955 173.641 72.2259C171.308 72.7015 169.383 59.7232 164.739 66.9032C164.128 67.8545 164.468 69.1229 163.969 70.0289C163.267 71.2973 162.724 71.2746 161.772 71.7729C163.222 68.9417 159.258 62.4186 163.335 62.5998C164.264 60.6066 162.814 58.4775 163.38 56.3937C164.513 52.3394 165.374 55.9634 166.257 57.798C166.778 58.8626 168.952 62.9169 170.855 61.5126C172.236 60.4933 170.515 56.0993 170.583 54.7403C172.282 55.0348 172.735 57.3903 174.547 57.8207C175.86 58.1378 176.88 58.1604 177.695 58.0245C177.627 57.9566 177.559 57.866 177.491 57.798C176.132 56.3711 174.751 54.9895 173.301 53.6758L173.278 53.6531C171.783 52.2941 170.221 50.9578 168.635 49.7121C168.613 49.6894 168.567 49.6668 168.545 49.6215C166.982 48.3984 165.374 47.2432 163.743 46.1334C163.607 46.0428 163.471 45.9522 163.312 45.8616C160.006 43.6419 156.518 41.6714 152.894 39.95C152.78 39.9047 152.667 39.8368 152.554 39.7915C150.765 38.9534 148.953 38.1834 147.095 37.4586C146.937 37.3906 146.778 37.3453 146.597 37.2774C142.837 35.8731 138.964 34.7179 134.978 33.8573C134.887 33.8346 134.774 33.812 134.683 33.7893C134.819 34.3329 134.864 34.9897 134.706 35.9863C134.411 37.7077 133.551 37.4133 134.706 39.112C135.635 40.471 138.149 40.7428 139.304 41.9432C140.051 42.7133 140.232 43.6193 141.002 44.4347C141.976 45.4539 143.471 45.7257 144.241 47.062C144.581 47.6283 145.057 48.1492 145.306 48.7381C143.539 49.1005 140.867 46.3373 139.847 47.9227C138.738 49.6441 141.773 51.5014 142.18 52.7471C142.679 54.2647 141.206 56.8241 143.879 57.0053C146.37 57.1865 145.487 54.31 145.351 52.7698C148.182 52.43 148.5 54.7856 149.677 56.3258C151.24 58.4096 153.46 57.9113 155.045 59.4967C158.352 62.781 154.502 61.9203 153.052 61.9882C151.693 62.0562 151.036 61.6258 149.949 62.9169C148.545 64.6156 149.406 63.7096 150.108 65.2951C150.697 66.6541 152.146 70.8896 153.029 71.7049C153.686 72.2938 158.601 73.0866 160.142 72.9507C158.805 74.1511 158.126 75.5101 156.744 77.1635C154.049 80.4024 155.43 79.4512 155.906 83.1204C156.314 86.2687 153.777 87.2653 152.939 89.938C151.988 92.9957 154.343 96.597 154.728 99.3603C155.091 101.942 156.359 102.305 157.401 104.321C158.216 105.883 158.126 107.492 159.258 109.236C160.889 111.727 165.034 116.166 168.499 115.759C170.923 115.464 169.949 113.38 171.421 112.339C172.984 111.229 175.294 112.995 175.136 109.847C176.064 109.87 178.375 111.546 179.122 111.251C180.504 110.708 179.937 108.194 180.028 107.016C183.675 106.404 183.04 111.387 182.202 113.222C181.795 114.105 180.617 115.419 180.549 116.348C180.436 118.046 181.546 117.571 182.293 119.179C183.629 122.01 182.202 131.274 180.64 133.788C179.167 136.121 175.453 137.049 175.996 140.515C176.336 142.667 178.986 143.573 179.507 145.77C180.141 148.465 178.692 151.115 179.915 153.878C181.274 156.981 182.338 159.858 183.539 163.187C183.697 163.618 183.878 163.935 184.037 164.32C189.201 157.344 193.278 149.529 196.064 141.126C196.041 140.809 196.019 140.47 196.019 140.152C196.019 140.107 196.019 140.084 196.019 140.039C196.132 137.14 197.242 136.03 198.125 133.493C198.17 133.38 198.193 133.267 198.238 133.154C199.054 129.462 199.643 125.702 199.937 121.851C199.96 121.648 199.96 121.444 199.982 121.217C200.118 119.201 200.232 117.186 200.232 115.124C200.232 115.102 200.232 115.102 200.232 115.079C200.232 115.057 200.232 115.034 200.232 115.011C200.299 114.921 200.299 114.898 200.299 114.875Z" fill="#FFD066"/>
<path d="M132.69 132.497C131.331 131.931 129.428 132.995 128.092 132.248C126.031 131.07 127.163 130.119 124.649 129.62C123.086 129.303 121.637 130.073 120.119 129.847C118.534 129.598 116.88 127.514 114.887 127.65C111.807 125.158 111.739 122.055 109.655 118.862C107.413 115.396 106.031 116.529 102.86 116.597C99.7345 116.687 97.6281 113.607 94.5024 112.905C93.3246 112.633 92.3734 112.769 91.2862 112.837C89.8139 112.928 89.4742 113.086 87.6169 112.701C86.6656 112.52 85.1255 112.678 84.2421 112.407C84.1515 112.384 83.2455 112.497 82.9511 112.429C82.4075 112.293 82.7699 110.98 81.8865 110.912C80.7767 110.821 75.0463 113.811 74.616 114.626C73.5967 116.551 75.5899 117.344 75.7938 118.884C76.0203 120.651 75.3408 120.855 74.4121 122.078C71.1959 126.404 67.7305 133.154 66.53 138.363C65.8505 141.285 66.7112 142.01 67.9116 144.433C69.3159 147.264 69.0894 150.345 70.4258 153.176C71.966 156.506 74.0497 156.03 76.813 157.887C79.3045 159.563 79.4857 161.715 79.8254 164.501C80.0972 166.63 80.4143 168.691 80.437 170.888C80.4596 172.043 79.5763 172.496 80.0293 173.629C80.6861 175.214 82.9284 175.984 84.1062 177.139C85.2613 178.295 86.122 179.722 87.3451 180.877C90.3575 183.731 93.8003 186.199 95.114 190.322C95.6802 192.111 95.3858 193.47 95.114 194.92C97.764 195.644 100.459 196.256 103.2 196.732C103.608 196.799 103.879 191.613 104.061 191.092C104.763 189.008 105.941 188.646 107.458 187.06C109.089 185.339 108.908 184.116 109.519 181.805C111.037 176.052 113.936 175.554 118.715 173.085C122.656 171.047 125.85 168.918 124.717 164.501C123.426 159.541 125.804 157.117 128.885 153.38C132.078 149.484 134.139 144.637 134.842 139.632C135.34 136.325 134.932 133.426 132.69 132.497Z" fill="#FFD066"/>
<path d="M43.9706 93.517C43.5176 93.1319 42.8608 93.1546 42.4531 93.6076C42.0681 94.0606 42.1134 94.7174 42.5437 95.1251C45.1484 97.4127 47.8664 99.7457 50.6976 102.101C50.9015 102.26 51.128 102.35 51.3771 102.35C51.6942 102.35 51.9886 102.214 52.1925 101.965C52.5775 101.512 52.5096 100.833 52.0566 100.47C49.2707 98.0922 46.5527 95.782 43.9706 93.517Z" fill="#110239"/>
<path d="M66.5526 45.0466C66.9829 45.0466 67.3906 44.7748 67.5492 44.3445C67.753 43.8009 67.4586 43.1667 66.915 42.9855C63.4043 41.7171 59.9842 40.562 56.7452 39.5427C56.179 39.3615 55.5901 39.6786 55.4089 40.2449C55.2277 40.8111 55.5448 41.4 56.111 41.5812C59.3273 42.5778 62.7021 43.7329 66.1902 45.0013C66.3034 45.024 66.4167 45.0466 66.5526 45.0466Z" fill="#110239"/>
<path d="M28.5916 78.7722C28.1839 78.3419 27.5044 78.3193 27.074 78.7269C26.6437 79.1346 26.621 79.8141 27.0287 80.2445C29.3843 82.7359 31.9437 85.2954 34.639 87.8548C34.8429 88.0586 35.1147 88.1492 35.3865 88.1492C35.6583 88.1492 35.9527 88.036 36.1566 87.8095C36.5643 87.3791 36.5416 86.6997 36.1113 86.292C33.4613 83.7778 30.9245 81.2411 28.5916 78.7722Z" fill="#110239"/>
<path d="M77.515 119.836C77.0393 119.496 76.3598 119.609 76.0201 120.085C75.6803 120.561 75.7936 121.24 76.2692 121.58C79.1458 123.618 82.0902 125.634 85.08 127.673C85.2612 127.809 85.465 127.854 85.6689 127.854C86.0086 127.854 86.3484 127.695 86.5522 127.378C86.892 126.88 86.7561 126.223 86.2578 125.906C83.3133 123.867 80.3915 121.852 77.515 119.836Z" fill="#110239"/>
<path d="M60.3917 107.107C59.9161 106.744 59.2593 106.835 58.8969 107.288C58.5345 107.764 58.6251 108.42 59.0781 108.783C61.8413 110.934 64.6725 113.109 67.617 115.283C67.7982 115.419 68.0247 115.487 68.2512 115.487C68.5683 115.487 68.908 115.329 69.1119 115.057C69.4516 114.581 69.361 113.924 68.8854 113.562C65.9636 111.41 63.1324 109.258 60.3917 107.107Z" fill="#110239"/>
<path d="M35.4998 36.4848C38.716 37.0057 42.2041 37.7305 45.8734 38.6592C45.964 38.6818 46.0546 38.6818 46.1452 38.6818C46.6208 38.6818 47.0511 38.3647 47.187 37.8664C47.3229 37.3002 46.9832 36.7113 46.417 36.5754C42.7024 35.6468 39.1464 34.8993 35.8622 34.3557C35.2733 34.2651 34.7297 34.6502 34.6391 35.2391C34.5032 35.8279 34.9109 36.3942 35.4998 36.4848Z" fill="#110239"/>
<path d="M238.169 165.77C238.351 166.132 238.736 166.358 239.121 166.358C239.279 166.358 239.438 166.313 239.596 166.245C240.117 165.973 240.344 165.339 240.072 164.796C238.622 161.942 236.697 158.839 234.342 155.577C234.002 155.102 233.322 154.988 232.847 155.328C232.371 155.668 232.258 156.347 232.62 156.823C234.908 160.017 236.765 163.029 238.169 165.77Z" fill="#110239"/>
<path d="M8.32 45.658C8.32 44.8879 8.38795 44.1631 8.52385 43.4836C8.6371 42.9174 8.2747 42.3511 7.68581 42.2152C7.09691 42.102 6.53067 42.4644 6.41742 43.0533C6.25887 43.8687 6.16827 44.752 6.16827 45.658C6.16827 48.1495 6.80247 50.9807 8.0935 54.0837C8.25205 54.4914 8.65975 54.7405 9.09009 54.7405C9.22599 54.7405 9.36188 54.7179 9.49778 54.6499C10.0414 54.4234 10.3132 53.8119 10.0867 53.2457C8.90889 50.4144 8.32 47.855 8.32 45.658Z" fill="#110239"/>
<path d="M25.0356 33.3364H24.4014C20.3245 33.3364 16.8591 33.8574 14.1411 34.854C13.5975 35.0578 13.3031 35.6693 13.5069 36.2356C13.6655 36.6659 14.0732 36.9377 14.5035 36.9377C14.6167 36.9377 14.7526 36.9151 14.8659 36.8698C17.3574 35.9411 20.5736 35.4882 24.4014 35.4882H25.013H25.0356C25.6245 35.4882 26.1002 35.0125 26.1002 34.4236C26.1002 33.8347 25.6245 33.3591 25.0356 33.3364Z" fill="#110239"/>
<path d="M15.1375 62.419C14.7977 61.9207 14.1409 61.7848 13.6426 62.1245C13.1443 62.4643 13.031 63.1211 13.3481 63.5968C15.1828 66.3147 17.3571 69.2139 19.8486 72.2263C20.0525 72.4755 20.3695 72.6114 20.664 72.6114C20.9131 72.6114 21.1396 72.5208 21.3435 72.3622C21.7965 71.9772 21.8644 71.3203 21.4794 70.8673C19.0559 67.9229 16.9041 65.0917 15.1375 62.419Z" fill="#110239"/>
<path d="M200.593 182.395C197.377 181.512 193.934 180.492 190.401 179.315C189.835 179.133 189.246 179.428 189.042 179.994C188.861 180.56 189.155 181.149 189.722 181.353C193.278 182.531 196.743 183.573 200.005 184.456C200.095 184.479 200.186 184.501 200.276 184.501C200.752 184.501 201.182 184.184 201.318 183.709C201.499 183.142 201.16 182.553 200.593 182.395Z" fill="#110239"/>
<path d="M104.242 137.48C101.184 135.6 98.1716 133.698 95.2045 131.772C94.7062 131.455 94.0493 131.591 93.7322 132.089C93.4151 132.588 93.551 133.245 94.0493 133.562C97.0164 135.487 100.051 137.39 103.109 139.292C103.29 139.405 103.472 139.451 103.675 139.451C104.038 139.451 104.378 139.269 104.581 138.952C104.899 138.431 104.74 137.775 104.242 137.48Z" fill="#110239"/>
<path d="M221.386 186.245C218.238 186.041 214.727 185.543 210.922 184.818C210.356 184.705 209.789 185.09 209.676 185.656C209.563 186.245 209.948 186.788 210.514 186.902C214.387 187.649 217.989 188.147 221.228 188.374C221.25 188.374 221.273 188.374 221.296 188.374C221.862 188.374 222.315 187.944 222.36 187.377C222.428 186.788 221.975 186.29 221.386 186.245Z" fill="#110239"/>
<path d="M243.333 175.373C243.311 174.784 242.813 174.399 242.201 174.354C241.612 174.376 241.159 174.897 241.182 175.486C241.204 175.735 241.204 175.985 241.204 176.211C241.204 178.046 240.797 179.654 239.981 180.99C238.532 183.391 235.768 184.999 231.759 185.792C231.171 185.905 230.808 186.471 230.921 187.06C231.012 187.559 231.465 187.921 231.963 187.921C232.031 187.921 232.099 187.921 232.167 187.898C236.788 186.97 240.027 185.022 241.793 182.1C242.813 180.424 243.333 178.431 243.333 176.211C243.356 175.939 243.356 175.645 243.333 175.373Z" fill="#110239"/>
<path d="M220.276 139.292C219.868 138.862 219.189 138.862 218.759 139.269C218.328 139.677 218.328 140.356 218.736 140.787C221.341 143.437 223.764 146.064 225.961 148.578C226.165 148.827 226.459 148.941 226.777 148.941C227.026 148.941 227.275 148.85 227.479 148.669C227.932 148.284 227.977 147.604 227.592 147.151C225.372 144.615 222.903 141.965 220.276 139.292Z" fill="#110239"/>
<path d="M211.828 133.652C212.122 133.652 212.394 133.539 212.621 133.312C213.028 132.882 213.006 132.202 212.575 131.795C210.061 129.462 207.366 127.038 204.58 124.637C204.127 124.252 203.47 124.298 203.062 124.751C202.677 125.204 202.723 125.883 203.176 126.268C205.939 128.669 208.612 131.047 211.103 133.38C211.307 133.561 211.579 133.652 211.828 133.652Z" fill="#110239"/>
<path d="M122.633 148.33C119.576 146.608 116.495 144.819 113.392 142.984C112.894 142.69 112.237 142.848 111.92 143.369C111.626 143.868 111.784 144.524 112.305 144.841C115.408 146.676 118.511 148.465 121.591 150.209C121.75 150.3 121.931 150.345 122.112 150.345C122.475 150.345 122.86 150.142 123.041 149.802C123.313 149.258 123.132 148.624 122.633 148.33Z" fill="#110239"/>
<path d="M180.367 175.78C177.128 174.58 173.799 173.244 170.447 171.862C169.903 171.636 169.269 171.885 169.043 172.428C168.816 172.972 169.065 173.606 169.631 173.833C173.006 175.237 176.358 176.551 179.62 177.774C179.733 177.819 179.869 177.842 180.005 177.842C180.435 177.842 180.843 177.57 181.002 177.139C181.205 176.596 180.934 175.984 180.367 175.78Z" fill="#110239"/>
<path d="M141.433 158.431C138.307 156.845 135.159 155.192 131.988 153.493C131.467 153.221 130.81 153.403 130.538 153.924C130.266 154.445 130.447 155.101 130.968 155.373C134.162 157.095 137.333 158.748 140.459 160.333C140.617 160.401 140.776 160.447 140.934 160.447C141.319 160.447 141.704 160.243 141.886 159.858C142.157 159.337 141.953 158.68 141.433 158.431Z" fill="#110239"/>
<path d="M160.662 167.65C157.491 166.223 154.252 164.728 150.991 163.165C150.447 162.893 149.813 163.143 149.564 163.663C149.315 164.207 149.541 164.841 150.062 165.09C153.346 166.676 156.585 168.171 159.779 169.598C159.915 169.666 160.073 169.688 160.209 169.688C160.617 169.688 161.002 169.462 161.183 169.054C161.455 168.511 161.206 167.876 160.662 167.65Z" fill="#110239"/>
<path d="M54.0726 190.593C50.6525 191.68 47.323 192.677 44.1746 193.515C43.631 193.673 43.2913 194.24 43.4498 194.783C43.5631 195.236 43.9708 195.531 44.4011 195.553C44.5144 195.553 44.605 195.553 44.7182 195.531C47.9118 194.67 51.2867 193.696 54.7294 192.586C55.273 192.405 55.5675 191.839 55.4089 191.273C55.2051 190.729 54.6162 190.435 54.0726 190.593Z" fill="#110239"/>
<path d="M34.1409 195.871C30.4943 196.573 27.0742 197.071 23.9938 197.343C23.4276 197.388 22.9972 197.887 23.0425 198.476C23.0878 198.997 23.5182 199.404 24.0391 199.427C24.0844 199.427 24.1297 199.427 24.175 199.427C27.346 199.155 30.834 198.657 34.5486 197.909C35.1148 197.796 35.4772 197.253 35.364 196.686C35.2507 196.12 34.7071 195.735 34.1409 195.871Z" fill="#110239"/>
<path d="M92.4865 175.305C89.2929 176.8 86.1445 178.204 83.0415 179.563C82.5206 179.79 82.2714 180.401 82.4979 180.922C82.6565 181.307 83.0189 181.534 83.4039 181.556C83.5625 181.556 83.721 181.534 83.8569 181.466C86.9599 180.107 90.1309 178.68 93.3472 177.185C93.8681 176.936 94.0946 176.324 93.8455 175.803C93.619 175.282 93.0074 175.056 92.4865 175.305Z" fill="#110239"/>
<path d="M73.5061 183.55C70.2219 184.863 66.983 186.109 63.8573 187.264C63.3137 187.468 63.0419 188.057 63.2458 188.6C63.4043 189.008 63.7667 189.257 64.1744 189.28C64.3103 189.28 64.4462 189.257 64.5821 189.212C67.753 188.057 70.992 186.811 74.2988 185.475C74.8198 185.271 75.0916 184.659 74.8651 184.116C74.6612 183.595 74.0497 183.346 73.5061 183.55Z" fill="#110239"/>
<path d="M184.037 59.1571C184.15 59.1571 184.263 59.1571 184.377 59.1118C187.865 58.1152 191.217 57.2772 194.365 56.5751C194.931 56.4618 195.271 55.8956 195.158 55.3293C195.045 54.7631 194.478 54.4233 193.912 54.5366C190.718 55.2387 187.321 56.0994 183.788 57.096C183.244 57.2546 182.927 57.8208 183.063 58.387C183.199 58.8627 183.606 59.1571 184.037 59.1571Z" fill="#110239"/>
<path d="M111.059 166.109C107.956 167.74 104.876 169.303 101.841 170.798C101.32 171.047 101.116 171.681 101.365 172.179C101.546 172.519 101.886 172.746 102.248 172.746C102.407 172.746 102.588 172.723 102.747 172.632C105.804 171.115 108.907 169.552 112.01 167.921C112.509 167.649 112.713 167.038 112.441 166.517C112.192 166.041 111.557 165.837 111.059 166.109Z" fill="#110239"/>
<path d="M32.374 143.754C31.989 143.323 31.3322 143.301 30.9018 143.686C28.2291 146.086 25.6697 148.487 23.3142 150.82C22.9065 151.228 22.9065 151.885 23.2915 152.292C23.4727 152.496 23.7219 152.587 23.9937 152.61C24.2654 152.632 24.5599 152.519 24.7637 152.315C27.1193 150.005 29.6561 147.627 32.2835 145.248C32.7364 144.818 32.7591 144.161 32.374 143.754Z" fill="#110239"/>
<path d="M5.03594 174.739C4.53765 174.467 3.90345 174.648 3.63166 175.146C1.61583 178.861 0.392747 182.236 0.00770199 185.203C-0.0602472 185.769 0.324797 186.29 0.89104 186.358C0.91369 186.358 0.958987 186.358 0.981637 186.358C1.50258 186.381 1.97823 185.995 2.04618 185.452C2.40857 182.734 3.54106 179.608 5.44364 176.12C5.71543 175.645 5.53423 175.01 5.03594 174.739Z" fill="#110239"/>
<path d="M13.8468 197.32C9.86046 196.845 6.8254 195.712 4.83222 193.991C4.40188 193.606 3.74504 193.674 3.35999 194.104C2.97495 194.534 3.0429 195.191 3.47324 195.576C5.78351 197.592 9.20362 198.86 13.5977 199.404C13.6203 199.404 13.643 199.404 13.6656 199.404C14.2092 199.427 14.6849 199.042 14.7302 198.498C14.8208 197.886 14.4131 197.388 13.8468 197.32Z" fill="#110239"/>
<path d="M16.0892 158.318C13.5977 161.081 11.3327 163.799 9.38484 166.358C9.0451 166.811 9.1357 167.468 9.58869 167.808C9.76989 167.944 9.97374 168.012 10.1776 168.012C10.5173 168.034 10.8344 167.876 11.0609 167.604C12.9635 165.09 15.1832 162.417 17.652 159.699C18.037 159.269 17.9917 158.612 17.584 158.227C17.1311 157.865 16.4742 157.91 16.0892 158.318Z" fill="#110239"/>
<path d="M164.195 133.992C161.41 135.94 158.556 137.865 155.634 139.813C155.158 140.13 155.022 140.764 155.339 141.24C155.521 141.534 155.838 141.693 156.155 141.715C156.359 141.715 156.585 141.67 156.766 141.534C159.711 139.586 162.565 137.638 165.373 135.691C165.849 135.351 165.962 134.717 165.645 134.241C165.305 133.788 164.671 133.675 164.195 133.992Z" fill="#110239"/>
<path d="M214.75 52.226C211.647 52.1128 208.113 52.294 204.24 52.7696C203.674 52.8376 203.266 53.3585 203.334 53.9248C203.402 54.4457 203.81 54.8081 204.308 54.8307C204.376 54.8307 204.421 54.8307 204.489 54.8307C208.249 54.3551 211.669 54.1739 214.659 54.3098C215.225 54.3325 215.724 53.8795 215.746 53.3132C215.769 52.7243 215.271 52.2487 214.75 52.226Z" fill="#110239"/>
<path d="M211.783 94.3547C209.54 96.7556 207.094 99.2018 204.512 101.671C204.104 102.056 204.082 102.712 204.489 103.143C204.671 103.347 204.942 103.46 205.192 103.46C205.463 103.483 205.735 103.369 205.962 103.165C208.566 100.674 211.035 98.1826 213.323 95.759C213.708 95.3513 213.685 94.6718 213.278 94.2868C212.825 93.9244 212.168 93.9244 211.783 94.3547Z" fill="#110239"/>
<path d="M225.939 77.9337C225.463 77.6393 224.806 77.7752 224.512 78.2735C222.904 80.8782 220.888 83.6868 218.555 86.6086C218.193 87.0616 218.261 87.7184 218.714 88.0581C218.895 88.194 219.099 88.2846 219.325 88.2846C219.642 88.3073 219.959 88.1714 220.186 87.8996C222.587 84.9098 224.648 82.056 226.301 79.3607C226.573 78.885 226.437 78.2282 225.939 77.9337Z" fill="#110239"/>
<path d="M230.152 58.8856C229.087 57.0509 227.434 55.5787 225.237 54.4915C224.738 54.2424 224.104 54.4462 223.855 54.9672C223.606 55.4881 223.81 56.0997 224.331 56.3488C226.143 57.2548 227.524 58.4552 228.385 59.9275C229.246 61.3771 229.631 63.1211 229.54 65.1369C229.495 66.3826 229.246 67.7416 228.815 69.1912C228.657 69.7348 228.974 70.3237 229.517 70.4822C229.608 70.5049 229.676 70.5275 229.767 70.5275C230.242 70.5502 230.673 70.2557 230.809 69.7801C231.284 68.172 231.533 66.6544 231.601 65.2502C231.692 62.8266 231.216 60.6749 230.152 58.8856Z" fill="#110239"/>
<path d="M146.936 145.43C144.06 147.242 141.115 149.076 138.126 150.866C137.627 151.16 137.469 151.794 137.763 152.292C137.944 152.61 138.262 152.768 138.601 152.791C138.805 152.791 139.009 152.745 139.19 152.632C142.18 150.82 145.147 149.008 148.046 147.174C148.522 146.879 148.68 146.222 148.363 145.747C148.046 145.271 147.412 145.135 146.936 145.43Z" fill="#110239"/>
<path d="M196.879 108.647C194.388 110.844 191.738 113.086 188.997 115.328C188.544 115.691 188.499 116.348 188.861 116.801C189.065 117.027 189.337 117.163 189.609 117.186C189.858 117.186 190.107 117.118 190.311 116.959C193.074 114.694 195.747 112.429 198.261 110.232C198.691 109.847 198.736 109.19 198.351 108.76C197.966 108.307 197.309 108.262 196.879 108.647Z" fill="#110239"/>
<path d="M129.202 156.143C126.189 157.887 123.177 159.586 120.187 161.216C119.689 161.488 119.508 162.122 119.779 162.621C119.961 162.96 120.3 163.142 120.64 163.164C120.821 163.164 121.002 163.142 121.184 163.028C124.196 161.375 127.208 159.676 130.244 157.932C130.742 157.638 130.9 157.003 130.629 156.528C130.334 156.03 129.7 155.848 129.202 156.143Z" fill="#110239"/>
<path d="M180.911 121.784C178.239 123.845 175.475 125.929 172.644 128.012C172.191 128.352 172.078 129.009 172.418 129.462C172.621 129.734 172.916 129.87 173.21 129.892C173.437 129.892 173.663 129.847 173.867 129.689C176.721 127.605 179.507 125.521 182.18 123.437C182.633 123.097 182.723 122.441 182.361 121.988C181.998 121.512 181.364 121.421 180.911 121.784Z" fill="#110239"/>
</svg>
